<mxfile host="app.diagrams.net" modified="2023-11-05T23:18:06.087Z" agent="Mozilla/5.0 (Windows NT 10.0; Win64; x64; rv:109.0) Gecko/20100101 Firefox/119.0" etag="iR0T4piPXyhbQUr_V1gt" version="22.0.8" type="device">
  <diagram name="Page-1" id="9nryeXDKc1Sc-BEjQk6Q">
    <mxGraphModel dx="1426" dy="2020" grid="1" gridSize="10" guides="1" tooltips="1" connect="1" arrows="1" fold="1" page="1" pageScale="1" pageWidth="850" pageHeight="1100" math="0" shadow="0">
      <root>
        <mxCell id="0" />
        <mxCell id="1" parent="0" />
        <mxCell id="owtlcFxVHajjanNQeQpd-1" value="" style="rounded=0;whiteSpace=wrap;html=1;" parent="1" vertex="1">
          <mxGeometry width="560" height="680" as="geometry" />
        </mxCell>
        <mxCell id="owtlcFxVHajjanNQeQpd-2" value="&lt;font style=&quot;font-size: 24px;&quot;&gt;KOMAMO&lt;/font&gt;" style="rounded=0;whiteSpace=wrap;html=1;" parent="1" vertex="1">
          <mxGeometry width="560" height="80" as="geometry" />
        </mxCell>
        <mxCell id="owtlcFxVHajjanNQeQpd-5" value="&lt;span style=&quot;font-size: 24px;&quot;&gt;Don&#39;t know what to do with whatever&#39;s in your fridge? We can help.&lt;/span&gt;" style="text;html=1;strokeColor=none;fillColor=none;align=center;verticalAlign=middle;whiteSpace=wrap;rounded=0;" parent="1" vertex="1">
          <mxGeometry x="72.5" y="189" width="415" height="110" as="geometry" />
        </mxCell>
        <mxCell id="owtlcFxVHajjanNQeQpd-6" value="" style="rounded=0;whiteSpace=wrap;html=1;" parent="1" vertex="1">
          <mxGeometry x="1440" width="560" height="680" as="geometry" />
        </mxCell>
        <mxCell id="owtlcFxVHajjanNQeQpd-9" value="&lt;font style=&quot;font-size: 24px;&quot;&gt;KOMAMO&lt;/font&gt;" style="rounded=0;whiteSpace=wrap;html=1;" parent="1" vertex="1">
          <mxGeometry x="1440" width="560" height="80" as="geometry" />
        </mxCell>
        <mxCell id="owtlcFxVHajjanNQeQpd-10" value="&lt;font style=&quot;font-size: 24px;&quot;&gt;What ingredients do you have?&lt;/font&gt;" style="text;html=1;strokeColor=none;fillColor=none;align=center;verticalAlign=middle;whiteSpace=wrap;rounded=0;" parent="1" vertex="1">
          <mxGeometry x="1525" y="80" width="390" height="110" as="geometry" />
        </mxCell>
        <mxCell id="owtlcFxVHajjanNQeQpd-11" value="" style="rounded=1;whiteSpace=wrap;html=1;" parent="1" vertex="1">
          <mxGeometry x="1540" y="190" width="360" height="292.5" as="geometry" />
        </mxCell>
        <mxCell id="owtlcFxVHajjanNQeQpd-12" value="" style="shape=image;html=1;verticalAlign=top;verticalLabelPosition=bottom;labelBackgroundColor=#ffffff;imageAspect=0;aspect=fixed;image=https://cdn4.iconfinder.com/data/icons/ionicons/512/icon-plus-circled-128.png" parent="1" vertex="1">
          <mxGeometry x="1701.5" y="433" width="37" height="37" as="geometry" />
        </mxCell>
        <mxCell id="owtlcFxVHajjanNQeQpd-13" value="Eggs" style="rounded=1;whiteSpace=wrap;html=1;" parent="1" vertex="1">
          <mxGeometry x="1555" y="240" width="325" height="40" as="geometry" />
        </mxCell>
        <mxCell id="owtlcFxVHajjanNQeQpd-14" value="Coconut Flour" style="rounded=1;whiteSpace=wrap;html=1;" parent="1" vertex="1">
          <mxGeometry x="1555" y="310" width="325" height="40" as="geometry" />
        </mxCell>
        <mxCell id="owtlcFxVHajjanNQeQpd-15" value="Butter" style="rounded=1;whiteSpace=wrap;html=1;" parent="1" vertex="1">
          <mxGeometry x="1555" y="380" width="325" height="40" as="geometry" />
        </mxCell>
        <mxCell id="owtlcFxVHajjanNQeQpd-16" value="" style="shape=image;html=1;verticalAlign=top;verticalLabelPosition=bottom;labelBackgroundColor=#ffffff;imageAspect=0;aspect=fixed;image=https://cdn4.iconfinder.com/data/icons/essentials-71/24/039_-_Cross-128.png" parent="1" vertex="1">
          <mxGeometry x="1850" y="387.5" width="25" height="25" as="geometry" />
        </mxCell>
        <mxCell id="owtlcFxVHajjanNQeQpd-17" value="" style="shape=image;html=1;verticalAlign=top;verticalLabelPosition=bottom;labelBackgroundColor=#ffffff;imageAspect=0;aspect=fixed;image=https://cdn4.iconfinder.com/data/icons/essentials-71/24/039_-_Cross-128.png;imageBackground=default;" parent="1" vertex="1">
          <mxGeometry x="1850" y="247.5" width="25" height="25" as="geometry" />
        </mxCell>
        <mxCell id="owtlcFxVHajjanNQeQpd-18" value="" style="shape=image;html=1;verticalAlign=top;verticalLabelPosition=bottom;labelBackgroundColor=#ffffff;imageAspect=0;aspect=fixed;image=https://cdn4.iconfinder.com/data/icons/essentials-71/24/039_-_Cross-128.png" parent="1" vertex="1">
          <mxGeometry x="1850" y="317.5" width="25" height="25" as="geometry" />
        </mxCell>
        <mxCell id="owtlcFxVHajjanNQeQpd-19" value="&lt;font style=&quot;font-size: 18px;&quot;&gt;Next&lt;/font&gt;" style="rounded=1;whiteSpace=wrap;html=1;" parent="1" vertex="1">
          <mxGeometry x="1617.5" y="540" width="205" height="80" as="geometry" />
        </mxCell>
        <mxCell id="owtlcFxVHajjanNQeQpd-21" value="" style="shape=flexArrow;endArrow=classic;html=1;rounded=0;exitX=1;exitY=0.5;exitDx=0;exitDy=0;" parent="1" edge="1">
          <mxGeometry width="50" height="50" relative="1" as="geometry">
            <mxPoint x="2000" y="339.41" as="sourcePoint" />
            <mxPoint x="2160" y="339.41" as="targetPoint" />
          </mxGeometry>
        </mxCell>
        <mxCell id="owtlcFxVHajjanNQeQpd-33" value="" style="rounded=0;whiteSpace=wrap;html=1;" parent="1" vertex="1">
          <mxGeometry x="2160" width="560" height="680" as="geometry" />
        </mxCell>
        <mxCell id="owtlcFxVHajjanNQeQpd-34" value="&lt;font style=&quot;font-size: 24px;&quot;&gt;KOMAMO&lt;/font&gt;" style="rounded=0;whiteSpace=wrap;html=1;" parent="1" vertex="1">
          <mxGeometry x="2160" width="560" height="80" as="geometry" />
        </mxCell>
        <mxCell id="owtlcFxVHajjanNQeQpd-35" value="&lt;font style=&quot;font-size: 24px;&quot;&gt;Any Dietary Restrictions?&lt;/font&gt;" style="text;html=1;strokeColor=none;fillColor=none;align=center;verticalAlign=middle;whiteSpace=wrap;rounded=0;" parent="1" vertex="1">
          <mxGeometry x="2245" y="80" width="390" height="110" as="geometry" />
        </mxCell>
        <mxCell id="owtlcFxVHajjanNQeQpd-38" value="Gluten Free" style="rounded=1;whiteSpace=wrap;html=1;fillColor=#D3D3D3;" parent="1" vertex="1">
          <mxGeometry x="2270" y="220" width="105" height="40" as="geometry" />
        </mxCell>
        <mxCell id="owtlcFxVHajjanNQeQpd-44" value="&lt;font style=&quot;font-size: 18px;&quot;&gt;Find Recipe&lt;/font&gt;" style="rounded=1;whiteSpace=wrap;html=1;" parent="1" vertex="1">
          <mxGeometry x="2337.5" y="540" width="205" height="80" as="geometry" />
        </mxCell>
        <mxCell id="owtlcFxVHajjanNQeQpd-45" value="Lactose Intolerant" style="rounded=1;whiteSpace=wrap;html=1;" parent="1" vertex="1">
          <mxGeometry x="2390" y="270" width="220" height="40" as="geometry" />
        </mxCell>
        <mxCell id="owtlcFxVHajjanNQeQpd-46" value="Halal" style="rounded=1;whiteSpace=wrap;html=1;" parent="1" vertex="1">
          <mxGeometry x="2270" y="270" width="105" height="40" as="geometry" />
        </mxCell>
        <mxCell id="owtlcFxVHajjanNQeQpd-47" value="Vegan" style="rounded=1;whiteSpace=wrap;html=1;" parent="1" vertex="1">
          <mxGeometry x="2505" y="220" width="105" height="40" as="geometry" />
        </mxCell>
        <mxCell id="owtlcFxVHajjanNQeQpd-48" value="Cholesterol-Restricted" style="rounded=1;whiteSpace=wrap;html=1;" parent="1" vertex="1">
          <mxGeometry x="2270" y="320" width="220" height="40" as="geometry" />
        </mxCell>
        <mxCell id="owtlcFxVHajjanNQeQpd-49" value="Kosher" style="rounded=1;whiteSpace=wrap;html=1;" parent="1" vertex="1">
          <mxGeometry x="2500" y="320" width="110" height="40" as="geometry" />
        </mxCell>
        <mxCell id="owtlcFxVHajjanNQeQpd-50" value="Tree Nut Allergy" style="rounded=1;whiteSpace=wrap;html=1;" parent="1" vertex="1">
          <mxGeometry x="2387.5" y="220" width="105" height="40" as="geometry" />
        </mxCell>
        <mxCell id="owtlcFxVHajjanNQeQpd-53" value="Paleo" style="rounded=1;whiteSpace=wrap;html=1;" parent="1" vertex="1">
          <mxGeometry x="2270" y="372.5" width="105" height="40" as="geometry" />
        </mxCell>
        <mxCell id="owtlcFxVHajjanNQeQpd-54" value="Raw" style="rounded=1;whiteSpace=wrap;html=1;" parent="1" vertex="1">
          <mxGeometry x="2387.5" y="372.5" width="105" height="40" as="geometry" />
        </mxCell>
        <mxCell id="owtlcFxVHajjanNQeQpd-55" value="Low Sodium" style="rounded=1;whiteSpace=wrap;html=1;" parent="1" vertex="1">
          <mxGeometry x="2505" y="372.5" width="105" height="40" as="geometry" />
        </mxCell>
        <mxCell id="owtlcFxVHajjanNQeQpd-56" value="" style="rounded=0;whiteSpace=wrap;html=1;" parent="1" vertex="1">
          <mxGeometry x="2880" width="560" height="680" as="geometry" />
        </mxCell>
        <mxCell id="owtlcFxVHajjanNQeQpd-57" value="&lt;font style=&quot;font-size: 24px;&quot;&gt;KOMAMO&lt;/font&gt;" style="rounded=0;whiteSpace=wrap;html=1;" parent="1" vertex="1">
          <mxGeometry x="2880" width="560" height="80" as="geometry" />
        </mxCell>
        <mxCell id="owtlcFxVHajjanNQeQpd-58" value="&lt;font style=&quot;font-size: 24px;&quot;&gt;Try this recipe!&lt;/font&gt;" style="text;html=1;strokeColor=none;fillColor=none;align=center;verticalAlign=middle;whiteSpace=wrap;rounded=0;" parent="1" vertex="1">
          <mxGeometry x="2965" y="80" width="390" height="110" as="geometry" />
        </mxCell>
        <mxCell id="owtlcFxVHajjanNQeQpd-59" value="" style="rounded=1;whiteSpace=wrap;html=1;arcSize=1;" parent="1" vertex="1">
          <mxGeometry x="2945" y="190" width="430" height="190" as="geometry" />
        </mxCell>
        <mxCell id="owtlcFxVHajjanNQeQpd-60" value="&lt;font style=&quot;font-size: 18px;&quot;&gt;Find Another Recipe&lt;/font&gt;" style="rounded=1;whiteSpace=wrap;html=1;" parent="1" vertex="1">
          <mxGeometry x="2945" y="540" width="195" height="80" as="geometry" />
        </mxCell>
        <mxCell id="owtlcFxVHajjanNQeQpd-70" value="" style="shape=flexArrow;endArrow=classic;html=1;rounded=0;exitX=1;exitY=0.5;exitDx=0;exitDy=0;" parent="1" edge="1">
          <mxGeometry width="50" height="50" relative="1" as="geometry">
            <mxPoint x="2720" y="339.37000000000006" as="sourcePoint" />
            <mxPoint x="2880" y="339.37000000000006" as="targetPoint" />
          </mxGeometry>
        </mxCell>
        <mxCell id="owtlcFxVHajjanNQeQpd-72" value="&lt;font style=&quot;font-size: 18px;&quot;&gt;Gluten Free Cookies&lt;/font&gt;" style="text;html=1;strokeColor=none;fillColor=none;align=center;verticalAlign=middle;whiteSpace=wrap;rounded=0;" parent="1" vertex="1">
          <mxGeometry x="3065" y="190" width="190" height="30" as="geometry" />
        </mxCell>
        <mxCell id="owtlcFxVHajjanNQeQpd-74" value="" style="rounded=1;whiteSpace=wrap;html=1;arcSize=4;" parent="1" vertex="1">
          <mxGeometry x="2945" y="380" width="430" height="140" as="geometry" />
        </mxCell>
        <mxCell id="owtlcFxVHajjanNQeQpd-75" value="&lt;font style=&quot;font-size: 18px;&quot;&gt;Nutritional Info&lt;/font&gt;" style="text;html=1;strokeColor=none;fillColor=none;align=center;verticalAlign=middle;whiteSpace=wrap;rounded=0;" parent="1" vertex="1">
          <mxGeometry x="3090" y="380" width="140" height="30" as="geometry" />
        </mxCell>
        <mxCell id="owtlcFxVHajjanNQeQpd-76" value="" style="shape=flexArrow;endArrow=classic;html=1;rounded=0;exitX=1;exitY=0.5;exitDx=0;exitDy=0;" parent="1" edge="1">
          <mxGeometry width="50" height="50" relative="1" as="geometry">
            <mxPoint x="1280" y="339.5" as="sourcePoint" />
            <mxPoint x="1440" y="339.5" as="targetPoint" />
          </mxGeometry>
        </mxCell>
        <mxCell id="owtlcFxVHajjanNQeQpd-77" value="" style="shape=flexArrow;endArrow=classic;html=1;rounded=0;exitX=1;exitY=0.5;exitDx=0;exitDy=0;" parent="1" edge="1">
          <mxGeometry width="50" height="50" relative="1" as="geometry">
            <mxPoint x="560" y="339.5" as="sourcePoint" />
            <mxPoint x="720" y="339.5" as="targetPoint" />
          </mxGeometry>
        </mxCell>
        <mxCell id="owtlcFxVHajjanNQeQpd-88" value="" style="rounded=0;whiteSpace=wrap;html=1;" parent="1" vertex="1">
          <mxGeometry x="720" width="560" height="680" as="geometry" />
        </mxCell>
        <mxCell id="owtlcFxVHajjanNQeQpd-89" value="&lt;font style=&quot;font-size: 24px;&quot;&gt;KOMAMO&lt;/font&gt;" style="rounded=0;whiteSpace=wrap;html=1;" parent="1" vertex="1">
          <mxGeometry x="720" width="560" height="80" as="geometry" />
        </mxCell>
        <mxCell id="owtlcFxVHajjanNQeQpd-90" value="&lt;font style=&quot;font-size: 24px;&quot;&gt;What do you want to make?&lt;/font&gt;" style="text;html=1;strokeColor=none;fillColor=none;align=center;verticalAlign=middle;whiteSpace=wrap;rounded=0;" parent="1" vertex="1">
          <mxGeometry x="805" y="80" width="390" height="110" as="geometry" />
        </mxCell>
        <mxCell id="owtlcFxVHajjanNQeQpd-93" value="Breakfast" style="rounded=1;whiteSpace=wrap;html=1;" parent="1" vertex="1">
          <mxGeometry x="835" y="230" width="330" height="40" as="geometry" />
        </mxCell>
        <mxCell id="owtlcFxVHajjanNQeQpd-94" value="Lunch" style="rounded=1;whiteSpace=wrap;html=1;" parent="1" vertex="1">
          <mxGeometry x="835" y="290" width="330" height="40" as="geometry" />
        </mxCell>
        <mxCell id="owtlcFxVHajjanNQeQpd-95" value="Dinner" style="rounded=1;whiteSpace=wrap;html=1;" parent="1" vertex="1">
          <mxGeometry x="835" y="350" width="330" height="40" as="geometry" />
        </mxCell>
        <mxCell id="owtlcFxVHajjanNQeQpd-99" value="&lt;font style=&quot;font-size: 18px;&quot;&gt;Next&lt;/font&gt;" style="rounded=1;whiteSpace=wrap;html=1;" parent="1" vertex="1">
          <mxGeometry x="897.5" y="540" width="205" height="80" as="geometry" />
        </mxCell>
        <mxCell id="owtlcFxVHajjanNQeQpd-100" value="Snack" style="rounded=1;whiteSpace=wrap;html=1;fillColor=#D3D3D3;" parent="1" vertex="1">
          <mxGeometry x="835" y="410" width="330" height="40" as="geometry" />
        </mxCell>
        <mxCell id="owtlcFxVHajjanNQeQpd-101" value="" style="rounded=0;whiteSpace=wrap;html=1;" parent="1" vertex="1">
          <mxGeometry x="720" y="820" width="560" height="680" as="geometry" />
        </mxCell>
        <mxCell id="owtlcFxVHajjanNQeQpd-102" value="&lt;font style=&quot;font-size: 24px;&quot;&gt;KOMAMO&lt;/font&gt;" style="rounded=0;whiteSpace=wrap;html=1;" parent="1" vertex="1">
          <mxGeometry x="720" y="820" width="560" height="80" as="geometry" />
        </mxCell>
        <mxCell id="owtlcFxVHajjanNQeQpd-103" value="&lt;font style=&quot;font-size: 24px;&quot;&gt;What do you want to make?&lt;/font&gt;" style="text;html=1;strokeColor=none;fillColor=none;align=center;verticalAlign=middle;whiteSpace=wrap;rounded=0;" parent="1" vertex="1">
          <mxGeometry x="805" y="900" width="390" height="110" as="geometry" />
        </mxCell>
        <mxCell id="owtlcFxVHajjanNQeQpd-104" value="Breakfast" style="rounded=1;whiteSpace=wrap;html=1;" parent="1" vertex="1">
          <mxGeometry x="835" y="1050" width="330" height="40" as="geometry" />
        </mxCell>
        <mxCell id="owtlcFxVHajjanNQeQpd-105" value="Lunch" style="rounded=1;whiteSpace=wrap;html=1;" parent="1" vertex="1">
          <mxGeometry x="835" y="1110" width="330" height="40" as="geometry" />
        </mxCell>
        <mxCell id="owtlcFxVHajjanNQeQpd-106" value="Dinner" style="rounded=1;whiteSpace=wrap;html=1;" parent="1" vertex="1">
          <mxGeometry x="835" y="1170" width="330" height="40" as="geometry" />
        </mxCell>
        <mxCell id="owtlcFxVHajjanNQeQpd-107" value="&lt;font style=&quot;font-size: 18px;&quot;&gt;Next&lt;/font&gt;" style="rounded=1;whiteSpace=wrap;html=1;" parent="1" vertex="1">
          <mxGeometry x="897.5" y="1360" width="205" height="80" as="geometry" />
        </mxCell>
        <mxCell id="owtlcFxVHajjanNQeQpd-108" value="Snack" style="rounded=1;whiteSpace=wrap;html=1;" parent="1" vertex="1">
          <mxGeometry x="835" y="1230" width="330" height="40" as="geometry" />
        </mxCell>
        <mxCell id="owtlcFxVHajjanNQeQpd-109" value="" style="shape=flexArrow;endArrow=classic;html=1;rounded=0;exitX=0.5;exitY=1;exitDx=0;exitDy=0;entryX=0.5;entryY=0;entryDx=0;entryDy=0;" parent="1" edge="1">
          <mxGeometry width="50" height="50" relative="1" as="geometry">
            <mxPoint x="890" y="680" as="sourcePoint" />
            <mxPoint x="890" y="820.0000000000002" as="targetPoint" />
          </mxGeometry>
        </mxCell>
        <mxCell id="owtlcFxVHajjanNQeQpd-110" value="" style="rounded=0;whiteSpace=wrap;html=1;" parent="1" vertex="1">
          <mxGeometry x="1440" y="820" width="560" height="680" as="geometry" />
        </mxCell>
        <mxCell id="owtlcFxVHajjanNQeQpd-111" value="&lt;font style=&quot;font-size: 24px;&quot;&gt;KOMAMO&lt;/font&gt;" style="rounded=0;whiteSpace=wrap;html=1;" parent="1" vertex="1">
          <mxGeometry x="1440" y="820" width="560" height="80" as="geometry" />
        </mxCell>
        <mxCell id="owtlcFxVHajjanNQeQpd-112" value="&lt;font style=&quot;font-size: 24px;&quot;&gt;What ingredients do you have?&lt;/font&gt;" style="text;html=1;strokeColor=none;fillColor=none;align=center;verticalAlign=middle;whiteSpace=wrap;rounded=0;" parent="1" vertex="1">
          <mxGeometry x="1525" y="900" width="390" height="110" as="geometry" />
        </mxCell>
        <mxCell id="owtlcFxVHajjanNQeQpd-113" value="" style="rounded=1;whiteSpace=wrap;html=1;" parent="1" vertex="1">
          <mxGeometry x="1540" y="1010" width="360" height="292.5" as="geometry" />
        </mxCell>
        <mxCell id="owtlcFxVHajjanNQeQpd-114" value="" style="shape=image;html=1;verticalAlign=top;verticalLabelPosition=bottom;labelBackgroundColor=#ffffff;imageAspect=0;aspect=fixed;image=https://cdn4.iconfinder.com/data/icons/ionicons/512/icon-plus-circled-128.png" parent="1" vertex="1">
          <mxGeometry x="1701.5" y="1253" width="37" height="37" as="geometry" />
        </mxCell>
        <mxCell id="owtlcFxVHajjanNQeQpd-115" value="Eggs" style="rounded=1;whiteSpace=wrap;html=1;" parent="1" vertex="1">
          <mxGeometry x="1555" y="1060" width="330" height="40" as="geometry" />
        </mxCell>
        <mxCell id="owtlcFxVHajjanNQeQpd-116" value="Coconut Flour" style="rounded=1;whiteSpace=wrap;html=1;" parent="1" vertex="1">
          <mxGeometry x="1555" y="1130" width="330" height="40" as="geometry" />
        </mxCell>
        <mxCell id="owtlcFxVHajjanNQeQpd-117" value="Butter" style="rounded=1;whiteSpace=wrap;html=1;" parent="1" vertex="1">
          <mxGeometry x="1555" y="1200" width="330" height="40" as="geometry" />
        </mxCell>
        <mxCell id="owtlcFxVHajjanNQeQpd-118" value="" style="shape=image;html=1;verticalAlign=top;verticalLabelPosition=bottom;labelBackgroundColor=#ffffff;imageAspect=0;aspect=fixed;image=https://cdn4.iconfinder.com/data/icons/essentials-71/24/039_-_Cross-128.png" parent="1" vertex="1">
          <mxGeometry x="1850" y="1207.5" width="25" height="25" as="geometry" />
        </mxCell>
        <mxCell id="owtlcFxVHajjanNQeQpd-119" value="" style="shape=image;html=1;verticalAlign=top;verticalLabelPosition=bottom;labelBackgroundColor=#ffffff;imageAspect=0;aspect=fixed;image=https://cdn4.iconfinder.com/data/icons/essentials-71/24/039_-_Cross-128.png" parent="1" vertex="1">
          <mxGeometry x="1850" y="1067.5" width="25" height="25" as="geometry" />
        </mxCell>
        <mxCell id="owtlcFxVHajjanNQeQpd-120" value="" style="shape=image;html=1;verticalAlign=top;verticalLabelPosition=bottom;labelBackgroundColor=#ffffff;imageAspect=0;aspect=fixed;image=https://cdn4.iconfinder.com/data/icons/essentials-71/24/039_-_Cross-128.png" parent="1" vertex="1">
          <mxGeometry x="1850" y="1137.5" width="25" height="25" as="geometry" />
        </mxCell>
        <mxCell id="owtlcFxVHajjanNQeQpd-121" value="&lt;font style=&quot;font-size: 18px;&quot;&gt;Next&lt;/font&gt;" style="rounded=1;whiteSpace=wrap;html=1;" parent="1" vertex="1">
          <mxGeometry x="1617.5" y="1360" width="205" height="80" as="geometry" />
        </mxCell>
        <mxCell id="owtlcFxVHajjanNQeQpd-122" value="" style="shape=flexArrow;endArrow=classic;html=1;rounded=0;exitX=0.5;exitY=1;exitDx=0;exitDy=0;entryX=0.5;entryY=0;entryDx=0;entryDy=0;" parent="1" edge="1">
          <mxGeometry width="50" height="50" relative="1" as="geometry">
            <mxPoint x="1580" y="680" as="sourcePoint" />
            <mxPoint x="1580" y="820" as="targetPoint" />
          </mxGeometry>
        </mxCell>
        <mxCell id="owtlcFxVHajjanNQeQpd-123" value="Please select a category!" style="rounded=1;whiteSpace=wrap;html=1;" parent="1" vertex="1">
          <mxGeometry x="807.5" y="1003.75" width="385" height="312.5" as="geometry" />
        </mxCell>
        <mxCell id="owtlcFxVHajjanNQeQpd-125" value="" style="html=1;verticalLabelPosition=bottom;labelBackgroundColor=#ffffff;verticalAlign=top;shadow=0;dashed=0;strokeWidth=2;shape=mxgraph.ios7.misc.scroll_(vertical);fillColor=#a0a0a0;" parent="1" vertex="1">
          <mxGeometry x="3360" y="410" width="6" height="35" as="geometry" />
        </mxCell>
        <mxCell id="owtlcFxVHajjanNQeQpd-126" value="No category picked" style="rounded=0;whiteSpace=wrap;html=1;" parent="1" vertex="1">
          <mxGeometry x="895" y="710" width="120" height="60" as="geometry" />
        </mxCell>
        <mxCell id="owtlcFxVHajjanNQeQpd-127" value="No ingredient input" style="rounded=0;whiteSpace=wrap;html=1;" parent="1" vertex="1">
          <mxGeometry x="1585" y="710" width="120" height="60" as="geometry" />
        </mxCell>
        <mxCell id="y2oy_BMaw9z0YgU2z-pi-3" value="Serves: 4" style="rounded=0;whiteSpace=wrap;html=1;fillColor=#D3D3D3;align=left;" parent="1" vertex="1">
          <mxGeometry x="2960" y="410" width="395" height="20" as="geometry" />
        </mxCell>
        <mxCell id="y2oy_BMaw9z0YgU2z-pi-4" value="Nutritional Facts per Cookie" style="rounded=0;whiteSpace=wrap;html=1;align=left;" parent="1" vertex="1">
          <mxGeometry x="2960" y="430" width="395" height="20" as="geometry" />
        </mxCell>
        <mxCell id="y2oy_BMaw9z0YgU2z-pi-5" value="Calories: 365 kcal" style="rounded=0;whiteSpace=wrap;html=1;fillColor=#D3D3D3;align=left;" parent="1" vertex="1">
          <mxGeometry x="2960" y="450" width="395" height="20" as="geometry" />
        </mxCell>
        <mxCell id="y2oy_BMaw9z0YgU2z-pi-6" value="Sodium: 12 mg" style="rounded=0;whiteSpace=wrap;html=1;align=left;" parent="1" vertex="1">
          <mxGeometry x="2960" y="470" width="395" height="20" as="geometry" />
        </mxCell>
        <mxCell id="y2oy_BMaw9z0YgU2z-pi-7" value="Fiber: 40000 g" style="rounded=0;whiteSpace=wrap;html=1;fillColor=#D3D3D3;align=left;" parent="1" vertex="1">
          <mxGeometry x="2960" y="490" width="395" height="20" as="geometry" />
        </mxCell>
        <mxCell id="y2oy_BMaw9z0YgU2z-pi-8" value="" style="rounded=0;whiteSpace=wrap;html=1;" parent="1" vertex="1">
          <mxGeometry x="2960" y="510" width="395" height="10" as="geometry" />
        </mxCell>
        <mxCell id="y2oy_BMaw9z0YgU2z-pi-9" value="" style="endArrow=none;dashed=1;html=1;dashPattern=1 3;strokeWidth=2;rounded=0;" parent="1" edge="1">
          <mxGeometry width="50" height="50" relative="1" as="geometry">
            <mxPoint x="60" y="157.5" as="sourcePoint" />
            <mxPoint x="60" y="510" as="targetPoint" />
          </mxGeometry>
        </mxCell>
        <mxCell id="y2oy_BMaw9z0YgU2z-pi-12" value="" style="endArrow=none;dashed=1;html=1;dashPattern=1 3;strokeWidth=2;rounded=0;" parent="1" edge="1">
          <mxGeometry width="50" height="50" relative="1" as="geometry">
            <mxPoint x="500" y="157.5" as="sourcePoint" />
            <mxPoint x="500" y="510" as="targetPoint" />
          </mxGeometry>
        </mxCell>
        <mxCell id="y2oy_BMaw9z0YgU2z-pi-13" value="" style="endArrow=none;dashed=1;html=1;dashPattern=1 3;strokeWidth=2;rounded=0;" parent="1" edge="1">
          <mxGeometry width="50" height="50" relative="1" as="geometry">
            <mxPoint x="60" y="160" as="sourcePoint" />
            <mxPoint x="500" y="160" as="targetPoint" />
          </mxGeometry>
        </mxCell>
        <mxCell id="y2oy_BMaw9z0YgU2z-pi-14" value="" style="endArrow=none;dashed=1;html=1;dashPattern=1 3;strokeWidth=2;rounded=0;" parent="1" edge="1">
          <mxGeometry width="50" height="50" relative="1" as="geometry">
            <mxPoint x="60" y="510" as="sourcePoint" />
            <mxPoint x="500" y="510" as="targetPoint" />
          </mxGeometry>
        </mxCell>
        <mxCell id="y2oy_BMaw9z0YgU2z-pi-15" value="" style="endArrow=none;dashed=1;html=1;dashPattern=1 3;strokeWidth=2;rounded=0;" parent="1" edge="1">
          <mxGeometry width="50" height="50" relative="1" as="geometry">
            <mxPoint x="780" y="650" as="sourcePoint" />
            <mxPoint x="1220" y="650" as="targetPoint" />
          </mxGeometry>
        </mxCell>
        <mxCell id="y2oy_BMaw9z0YgU2z-pi-16" value="" style="endArrow=none;dashed=1;html=1;dashPattern=1 3;strokeWidth=2;rounded=0;" parent="1" edge="1">
          <mxGeometry width="50" height="50" relative="1" as="geometry">
            <mxPoint x="780" y="102" as="sourcePoint" />
            <mxPoint x="1220" y="102" as="targetPoint" />
          </mxGeometry>
        </mxCell>
        <mxCell id="y2oy_BMaw9z0YgU2z-pi-17" value="" style="endArrow=none;dashed=1;html=1;dashPattern=1 3;strokeWidth=2;rounded=0;" parent="1" edge="1">
          <mxGeometry width="50" height="50" relative="1" as="geometry">
            <mxPoint x="1500" y="650" as="sourcePoint" />
            <mxPoint x="1940" y="650" as="targetPoint" />
          </mxGeometry>
        </mxCell>
        <mxCell id="y2oy_BMaw9z0YgU2z-pi-18" value="" style="endArrow=none;dashed=1;html=1;dashPattern=1 3;strokeWidth=2;rounded=0;" parent="1" edge="1">
          <mxGeometry width="50" height="50" relative="1" as="geometry">
            <mxPoint x="1500" y="100" as="sourcePoint" />
            <mxPoint x="1940" y="100" as="targetPoint" />
          </mxGeometry>
        </mxCell>
        <mxCell id="y2oy_BMaw9z0YgU2z-pi-19" value="" style="endArrow=none;dashed=1;html=1;dashPattern=1 3;strokeWidth=2;rounded=0;" parent="1" edge="1">
          <mxGeometry width="50" height="50" relative="1" as="geometry">
            <mxPoint x="2220" y="100" as="sourcePoint" />
            <mxPoint x="2660" y="100" as="targetPoint" />
          </mxGeometry>
        </mxCell>
        <mxCell id="y2oy_BMaw9z0YgU2z-pi-20" value="" style="endArrow=none;dashed=1;html=1;dashPattern=1 3;strokeWidth=2;rounded=0;" parent="1" edge="1">
          <mxGeometry width="50" height="50" relative="1" as="geometry">
            <mxPoint x="2220" y="650" as="sourcePoint" />
            <mxPoint x="2660" y="650" as="targetPoint" />
          </mxGeometry>
        </mxCell>
        <mxCell id="y2oy_BMaw9z0YgU2z-pi-21" value="" style="endArrow=none;dashed=1;html=1;dashPattern=1 3;strokeWidth=2;rounded=0;" parent="1" edge="1">
          <mxGeometry width="50" height="50" relative="1" as="geometry">
            <mxPoint x="2910" y="650" as="sourcePoint" />
            <mxPoint x="3420" y="650" as="targetPoint" />
          </mxGeometry>
        </mxCell>
        <mxCell id="y2oy_BMaw9z0YgU2z-pi-23" value="" style="endArrow=none;dashed=1;html=1;dashPattern=1 3;strokeWidth=2;rounded=0;" parent="1" edge="1">
          <mxGeometry width="50" height="50" relative="1" as="geometry">
            <mxPoint x="2910" y="100" as="sourcePoint" />
            <mxPoint x="3420" y="100" as="targetPoint" />
          </mxGeometry>
        </mxCell>
        <mxCell id="y2oy_BMaw9z0YgU2z-pi-24" value="" style="endArrow=none;dashed=1;html=1;dashPattern=1 3;strokeWidth=2;rounded=0;" parent="1" edge="1">
          <mxGeometry width="50" height="50" relative="1" as="geometry">
            <mxPoint x="780" y="100" as="sourcePoint" />
            <mxPoint x="780" y="660" as="targetPoint" />
          </mxGeometry>
        </mxCell>
        <mxCell id="y2oy_BMaw9z0YgU2z-pi-25" value="" style="endArrow=none;dashed=1;html=1;dashPattern=1 3;strokeWidth=2;rounded=0;" parent="1" edge="1">
          <mxGeometry width="50" height="50" relative="1" as="geometry">
            <mxPoint x="1220" y="100" as="sourcePoint" />
            <mxPoint x="1220" y="660" as="targetPoint" />
          </mxGeometry>
        </mxCell>
        <mxCell id="y2oy_BMaw9z0YgU2z-pi-26" value="" style="endArrow=none;dashed=1;html=1;dashPattern=1 3;strokeWidth=2;rounded=0;" parent="1" edge="1">
          <mxGeometry width="50" height="50" relative="1" as="geometry">
            <mxPoint x="1500" y="100" as="sourcePoint" />
            <mxPoint x="1500" y="660" as="targetPoint" />
          </mxGeometry>
        </mxCell>
        <mxCell id="y2oy_BMaw9z0YgU2z-pi-27" value="" style="endArrow=none;dashed=1;html=1;dashPattern=1 3;strokeWidth=2;rounded=0;" parent="1" edge="1">
          <mxGeometry width="50" height="50" relative="1" as="geometry">
            <mxPoint x="1930" y="100" as="sourcePoint" />
            <mxPoint x="1930" y="660" as="targetPoint" />
          </mxGeometry>
        </mxCell>
        <mxCell id="y2oy_BMaw9z0YgU2z-pi-28" value="" style="endArrow=none;dashed=1;html=1;dashPattern=1 3;strokeWidth=2;rounded=0;" parent="1" edge="1">
          <mxGeometry width="50" height="50" relative="1" as="geometry">
            <mxPoint x="2220" y="100" as="sourcePoint" />
            <mxPoint x="2220" y="660" as="targetPoint" />
          </mxGeometry>
        </mxCell>
        <mxCell id="y2oy_BMaw9z0YgU2z-pi-29" value="" style="endArrow=none;dashed=1;html=1;dashPattern=1 3;strokeWidth=2;rounded=0;" parent="1" edge="1">
          <mxGeometry width="50" height="50" relative="1" as="geometry">
            <mxPoint x="2660" y="100" as="sourcePoint" />
            <mxPoint x="2660" y="660" as="targetPoint" />
          </mxGeometry>
        </mxCell>
        <mxCell id="y2oy_BMaw9z0YgU2z-pi-30" value="" style="endArrow=none;dashed=1;html=1;dashPattern=1 3;strokeWidth=2;rounded=0;" parent="1" edge="1">
          <mxGeometry width="50" height="50" relative="1" as="geometry">
            <mxPoint x="2910" y="100" as="sourcePoint" />
            <mxPoint x="2910" y="660" as="targetPoint" />
          </mxGeometry>
        </mxCell>
        <mxCell id="y2oy_BMaw9z0YgU2z-pi-31" value="" style="endArrow=none;dashed=1;html=1;dashPattern=1 3;strokeWidth=2;rounded=0;" parent="1" edge="1">
          <mxGeometry width="50" height="50" relative="1" as="geometry">
            <mxPoint x="3420" y="100" as="sourcePoint" />
            <mxPoint x="3420" y="660" as="targetPoint" />
          </mxGeometry>
        </mxCell>
        <mxCell id="y2oy_BMaw9z0YgU2z-pi-32" value="Please give me at least one ingredient to work with!" style="rounded=1;whiteSpace=wrap;html=1;" parent="1" vertex="1">
          <mxGeometry x="1527.5" y="1003.75" width="385" height="312.5" as="geometry" />
        </mxCell>
        <mxCell id="y2oy_BMaw9z0YgU2z-pi-33" value="" style="endArrow=none;dashed=1;html=1;dashPattern=1 3;strokeWidth=2;rounded=0;" parent="1" edge="1">
          <mxGeometry width="50" height="50" relative="1" as="geometry">
            <mxPoint x="2250" y="190" as="sourcePoint" />
            <mxPoint x="2250" y="470" as="targetPoint" />
          </mxGeometry>
        </mxCell>
        <mxCell id="y2oy_BMaw9z0YgU2z-pi-34" value="" style="endArrow=none;dashed=1;html=1;dashPattern=1 3;strokeWidth=2;rounded=0;" parent="1" edge="1">
          <mxGeometry width="50" height="50" relative="1" as="geometry">
            <mxPoint x="2630" y="190" as="sourcePoint" />
            <mxPoint x="2630" y="470" as="targetPoint" />
          </mxGeometry>
        </mxCell>
        <mxCell id="y2oy_BMaw9z0YgU2z-pi-35" value="" style="endArrow=none;dashed=1;html=1;dashPattern=1 3;strokeWidth=2;rounded=0;" parent="1" edge="1">
          <mxGeometry width="50" height="50" relative="1" as="geometry">
            <mxPoint x="2630" y="460" as="sourcePoint" />
            <mxPoint x="2250" y="460" as="targetPoint" />
            <Array as="points">
              <mxPoint x="2440" y="460" />
            </Array>
          </mxGeometry>
        </mxCell>
        <mxCell id="y2oy_BMaw9z0YgU2z-pi-36" value="" style="endArrow=none;dashed=1;html=1;dashPattern=1 3;strokeWidth=2;rounded=0;" parent="1" edge="1">
          <mxGeometry width="50" height="50" relative="1" as="geometry">
            <mxPoint x="2630" y="190" as="sourcePoint" />
            <mxPoint x="2250" y="190" as="targetPoint" />
          </mxGeometry>
        </mxCell>
        <mxCell id="y2oy_BMaw9z0YgU2z-pi-37" value="" style="html=1;verticalLabelPosition=bottom;labelBackgroundColor=#ffffff;verticalAlign=top;shadow=0;dashed=0;strokeWidth=2;shape=mxgraph.ios7.misc.scroll_(vertical);fillColor=#a0a0a0;" parent="1" vertex="1">
          <mxGeometry x="1886" y="252" width="6" height="80" as="geometry" />
        </mxCell>
        <mxCell id="y2oy_BMaw9z0YgU2z-pi-38" value="class = startBox" style="text;html=1;strokeColor=none;fillColor=none;align=center;verticalAlign=middle;whiteSpace=wrap;rounded=0;" parent="1" vertex="1">
          <mxGeometry x="60" y="160" width="100" height="30" as="geometry" />
        </mxCell>
        <mxCell id="y2oy_BMaw9z0YgU2z-pi-39" value="class = typeBox" style="text;html=1;strokeColor=none;fillColor=none;align=center;verticalAlign=middle;whiteSpace=wrap;rounded=0;" parent="1" vertex="1">
          <mxGeometry x="780" y="100" width="100" height="30" as="geometry" />
        </mxCell>
        <mxCell id="y2oy_BMaw9z0YgU2z-pi-40" value="class = ingredientBox" style="text;html=1;strokeColor=none;fillColor=none;align=center;verticalAlign=middle;whiteSpace=wrap;rounded=0;" parent="1" vertex="1">
          <mxGeometry x="1500" y="100" width="140" height="30" as="geometry" />
        </mxCell>
        <mxCell id="y2oy_BMaw9z0YgU2z-pi-41" value="class = dietBox" style="text;html=1;strokeColor=none;fillColor=none;align=center;verticalAlign=middle;whiteSpace=wrap;rounded=0;" parent="1" vertex="1">
          <mxGeometry x="2220" y="100" width="90" height="30" as="geometry" />
        </mxCell>
        <mxCell id="y2oy_BMaw9z0YgU2z-pi-42" value="class = recipeBox" style="text;html=1;strokeColor=none;fillColor=none;align=center;verticalAlign=middle;whiteSpace=wrap;rounded=0;" parent="1" vertex="1">
          <mxGeometry x="2910" y="100" width="100" height="30" as="geometry" />
        </mxCell>
        <mxCell id="y2oy_BMaw9z0YgU2z-pi-43" value="class = button&lt;br&gt;id = startBtn" style="text;html=1;strokeColor=none;fillColor=none;align=center;verticalAlign=middle;whiteSpace=wrap;rounded=0;" parent="1" vertex="1">
          <mxGeometry x="100" y="395" width="100" height="30" as="geometry" />
        </mxCell>
        <mxCell id="y2oy_BMaw9z0YgU2z-pi-44" value="class = button&lt;br&gt;id = typeBtn" style="text;html=1;strokeColor=none;fillColor=none;align=center;verticalAlign=middle;whiteSpace=wrap;rounded=0;" parent="1" vertex="1">
          <mxGeometry x="900" y="540" width="100" height="30" as="geometry" />
        </mxCell>
        <mxCell id="y2oy_BMaw9z0YgU2z-pi-45" value="class = button&lt;br style=&quot;border-color: var(--border-color);&quot;&gt;id = ingredientBtn" style="text;html=1;strokeColor=none;fillColor=none;align=center;verticalAlign=middle;whiteSpace=wrap;rounded=0;" parent="1" vertex="1">
          <mxGeometry x="1610" y="540" width="120" height="30" as="geometry" />
        </mxCell>
        <mxCell id="y2oy_BMaw9z0YgU2z-pi-46" value="class = button&lt;br style=&quot;border-color: var(--border-color);&quot;&gt;id = dietBtn" style="text;html=1;strokeColor=none;fillColor=none;align=center;verticalAlign=middle;whiteSpace=wrap;rounded=0;" parent="1" vertex="1">
          <mxGeometry x="2340" y="540" width="90" height="30" as="geometry" />
        </mxCell>
        <mxCell id="y2oy_BMaw9z0YgU2z-pi-47" value="class = recipe&lt;b&gt;&amp;nbsp;B&lt;/b&gt;utton&lt;br style=&quot;border-color: var(--border-color);&quot;&gt;id = generateBtn" style="text;html=1;strokeColor=none;fillColor=none;align=center;verticalAlign=middle;whiteSpace=wrap;rounded=0;" parent="1" vertex="1">
          <mxGeometry x="3045" y="520" width="140" height="30" as="geometry" />
        </mxCell>
        <mxCell id="y2oy_BMaw9z0YgU2z-pi-48" value="class = warningModal&lt;br&gt;id = ingredientModal" style="text;html=1;strokeColor=none;fillColor=none;align=center;verticalAlign=middle;whiteSpace=wrap;rounded=0;" parent="1" vertex="1">
          <mxGeometry x="1540" y="1020" width="130" height="30" as="geometry" />
        </mxCell>
        <mxCell id="y2oy_BMaw9z0YgU2z-pi-50" value="class = warningModal&lt;br&gt;id = typeModal" style="text;html=1;strokeColor=none;fillColor=none;align=center;verticalAlign=middle;whiteSpace=wrap;rounded=0;" parent="1" vertex="1">
          <mxGeometry x="810" y="1020" width="130" height="30" as="geometry" />
        </mxCell>
        <mxCell id="y2oy_BMaw9z0YgU2z-pi-51" value="header" style="text;html=1;strokeColor=none;fillColor=none;align=center;verticalAlign=middle;whiteSpace=wrap;rounded=0;" parent="1" vertex="1">
          <mxGeometry width="100" height="30" as="geometry" />
        </mxCell>
        <mxCell id="y2oy_BMaw9z0YgU2z-pi-52" value="h1" style="text;html=1;strokeColor=none;fillColor=none;align=center;verticalAlign=middle;whiteSpace=wrap;rounded=0;" parent="1" vertex="1">
          <mxGeometry x="170" y="25" width="50" height="30" as="geometry" />
        </mxCell>
        <mxCell id="y2oy_BMaw9z0YgU2z-pi-53" value="header" style="text;html=1;strokeColor=none;fillColor=none;align=center;verticalAlign=middle;whiteSpace=wrap;rounded=0;" parent="1" vertex="1">
          <mxGeometry x="720" width="100" height="30" as="geometry" />
        </mxCell>
        <mxCell id="y2oy_BMaw9z0YgU2z-pi-54" value="h1" style="text;html=1;strokeColor=none;fillColor=none;align=center;verticalAlign=middle;whiteSpace=wrap;rounded=0;" parent="1" vertex="1">
          <mxGeometry x="890" y="25" width="50" height="30" as="geometry" />
        </mxCell>
        <mxCell id="y2oy_BMaw9z0YgU2z-pi-55" value="header" style="text;html=1;strokeColor=none;fillColor=none;align=center;verticalAlign=middle;whiteSpace=wrap;rounded=0;" parent="1" vertex="1">
          <mxGeometry x="1440" width="100" height="30" as="geometry" />
        </mxCell>
        <mxCell id="y2oy_BMaw9z0YgU2z-pi-56" value="h1" style="text;html=1;strokeColor=none;fillColor=none;align=center;verticalAlign=middle;whiteSpace=wrap;rounded=0;" parent="1" vertex="1">
          <mxGeometry x="1610" y="25" width="50" height="30" as="geometry" />
        </mxCell>
        <mxCell id="y2oy_BMaw9z0YgU2z-pi-57" value="header" style="text;html=1;strokeColor=none;fillColor=none;align=center;verticalAlign=middle;whiteSpace=wrap;rounded=0;" parent="1" vertex="1">
          <mxGeometry x="2160" width="100" height="30" as="geometry" />
        </mxCell>
        <mxCell id="y2oy_BMaw9z0YgU2z-pi-58" value="h1" style="text;html=1;strokeColor=none;fillColor=none;align=center;verticalAlign=middle;whiteSpace=wrap;rounded=0;" parent="1" vertex="1">
          <mxGeometry x="2330" y="25" width="50" height="30" as="geometry" />
        </mxCell>
        <mxCell id="y2oy_BMaw9z0YgU2z-pi-59" value="header" style="text;html=1;strokeColor=none;fillColor=none;align=center;verticalAlign=middle;whiteSpace=wrap;rounded=0;" parent="1" vertex="1">
          <mxGeometry x="2880" width="100" height="30" as="geometry" />
        </mxCell>
        <mxCell id="y2oy_BMaw9z0YgU2z-pi-60" value="h1" style="text;html=1;strokeColor=none;fillColor=none;align=center;verticalAlign=middle;whiteSpace=wrap;rounded=0;" parent="1" vertex="1">
          <mxGeometry x="3050" y="25" width="50" height="30" as="geometry" />
        </mxCell>
        <mxCell id="y2oy_BMaw9z0YgU2z-pi-61" value="h2" style="text;html=1;strokeColor=none;fillColor=none;align=center;verticalAlign=middle;whiteSpace=wrap;rounded=0;" parent="1" vertex="1">
          <mxGeometry x="130" y="256" width="50" height="30" as="geometry" />
        </mxCell>
        <mxCell id="y2oy_BMaw9z0YgU2z-pi-62" value="h2" style="text;html=1;strokeColor=none;fillColor=none;align=center;verticalAlign=middle;whiteSpace=wrap;rounded=0;" parent="1" vertex="1">
          <mxGeometry x="850" y="146" width="50" height="30" as="geometry" />
        </mxCell>
        <mxCell id="y2oy_BMaw9z0YgU2z-pi-63" value="h2" style="text;html=1;strokeColor=none;fillColor=none;align=center;verticalAlign=middle;whiteSpace=wrap;rounded=0;" parent="1" vertex="1">
          <mxGeometry x="1560" y="146" width="50" height="30" as="geometry" />
        </mxCell>
        <mxCell id="y2oy_BMaw9z0YgU2z-pi-64" value="h2" style="text;html=1;strokeColor=none;fillColor=none;align=center;verticalAlign=middle;whiteSpace=wrap;rounded=0;" parent="1" vertex="1">
          <mxGeometry x="2300" y="146" width="50" height="30" as="geometry" />
        </mxCell>
        <mxCell id="y2oy_BMaw9z0YgU2z-pi-65" value="h2" style="text;html=1;strokeColor=none;fillColor=none;align=center;verticalAlign=middle;whiteSpace=wrap;rounded=0;" parent="1" vertex="1">
          <mxGeometry x="3080" y="146" width="50" height="30" as="geometry" />
        </mxCell>
        <mxCell id="y2oy_BMaw9z0YgU2z-pi-66" value="" style="endArrow=none;dashed=1;html=1;dashPattern=1 3;strokeWidth=2;rounded=0;" parent="1" edge="1">
          <mxGeometry width="50" height="50" relative="1" as="geometry">
            <mxPoint x="820" y="190" as="sourcePoint" />
            <mxPoint x="820" y="470" as="targetPoint" />
          </mxGeometry>
        </mxCell>
        <mxCell id="y2oy_BMaw9z0YgU2z-pi-67" value="" style="endArrow=none;dashed=1;html=1;dashPattern=1 3;strokeWidth=2;rounded=0;" parent="1" edge="1">
          <mxGeometry width="50" height="50" relative="1" as="geometry">
            <mxPoint x="1180" y="190" as="sourcePoint" />
            <mxPoint x="1180" y="470" as="targetPoint" />
          </mxGeometry>
        </mxCell>
        <mxCell id="y2oy_BMaw9z0YgU2z-pi-68" value="" style="endArrow=none;dashed=1;html=1;dashPattern=1 3;strokeWidth=2;rounded=0;" parent="1" edge="1">
          <mxGeometry width="50" height="50" relative="1" as="geometry">
            <mxPoint x="820" y="470" as="sourcePoint" />
            <mxPoint x="1180" y="470" as="targetPoint" />
          </mxGeometry>
        </mxCell>
        <mxCell id="y2oy_BMaw9z0YgU2z-pi-69" value="" style="endArrow=none;dashed=1;html=1;dashPattern=1 3;strokeWidth=2;rounded=0;" parent="1" edge="1">
          <mxGeometry width="50" height="50" relative="1" as="geometry">
            <mxPoint x="820" y="190" as="sourcePoint" />
            <mxPoint x="1180" y="190" as="targetPoint" />
          </mxGeometry>
        </mxCell>
        <mxCell id="y2oy_BMaw9z0YgU2z-pi-70" value="class = typeList" style="text;html=1;strokeColor=none;fillColor=none;align=center;verticalAlign=middle;whiteSpace=wrap;rounded=0;" parent="1" vertex="1">
          <mxGeometry x="820" y="189" width="90" height="30" as="geometry" />
        </mxCell>
        <mxCell id="y2oy_BMaw9z0YgU2z-pi-71" value="class = typeOption&lt;br&gt;id = optionBreakfast" style="text;html=1;strokeColor=none;fillColor=none;align=center;verticalAlign=middle;whiteSpace=wrap;rounded=0;" parent="1" vertex="1">
          <mxGeometry x="835" y="230" width="125" height="40" as="geometry" />
        </mxCell>
        <mxCell id="y2oy_BMaw9z0YgU2z-pi-72" value="class = typeOption&lt;br&gt;id = optionLunch" style="text;html=1;strokeColor=none;fillColor=none;align=center;verticalAlign=middle;whiteSpace=wrap;rounded=0;" parent="1" vertex="1">
          <mxGeometry x="835" y="290" width="125" height="40" as="geometry" />
        </mxCell>
        <mxCell id="y2oy_BMaw9z0YgU2z-pi-73" value="class = typeOption&lt;br&gt;id = optionDinner" style="text;html=1;strokeColor=none;fillColor=none;align=center;verticalAlign=middle;whiteSpace=wrap;rounded=0;" parent="1" vertex="1">
          <mxGeometry x="835" y="350" width="125" height="40" as="geometry" />
        </mxCell>
        <mxCell id="y2oy_BMaw9z0YgU2z-pi-74" value="class = typeOption&lt;br&gt;id = optionSnack" style="text;html=1;strokeColor=none;fillColor=none;align=center;verticalAlign=middle;whiteSpace=wrap;rounded=0;" parent="1" vertex="1">
          <mxGeometry x="835" y="410" width="125" height="40" as="geometry" />
        </mxCell>
        <mxCell id="y2oy_BMaw9z0YgU2z-pi-75" value="class = ingredientList" style="text;html=1;strokeColor=none;fillColor=none;align=center;verticalAlign=middle;whiteSpace=wrap;rounded=0;" parent="1" vertex="1">
          <mxGeometry x="1560" y="189" width="120" height="30" as="geometry" />
        </mxCell>
        <mxCell id="y2oy_BMaw9z0YgU2z-pi-76" value="class = ingredientField&lt;br&gt;id = ingredientItem" style="text;html=1;strokeColor=none;fillColor=none;align=center;verticalAlign=middle;whiteSpace=wrap;rounded=0;" parent="1" vertex="1">
          <mxGeometry x="1555" y="240" width="125" height="30" as="geometry" />
        </mxCell>
        <mxCell id="y2oy_BMaw9z0YgU2z-pi-81" value="class = dietList" style="text;html=1;strokeColor=none;fillColor=none;align=center;verticalAlign=middle;whiteSpace=wrap;rounded=0;" parent="1" vertex="1">
          <mxGeometry x="2250" y="190" width="90" height="30" as="geometry" />
        </mxCell>
        <mxCell id="y2oy_BMaw9z0YgU2z-pi-82" value="class = foundRecipe" style="text;html=1;strokeColor=none;fillColor=none;align=center;verticalAlign=middle;whiteSpace=wrap;rounded=0;" parent="1" vertex="1">
          <mxGeometry x="2945" y="189" width="115" height="30" as="geometry" />
        </mxCell>
        <mxCell id="y2oy_BMaw9z0YgU2z-pi-84" value="id = recipeName" style="text;html=1;strokeColor=none;fillColor=none;align=center;verticalAlign=middle;whiteSpace=wrap;rounded=0;" parent="1" vertex="1">
          <mxGeometry x="3240" y="190" width="115" height="30" as="geometry" />
        </mxCell>
        <mxCell id="y2oy_BMaw9z0YgU2z-pi-85" value="id = recipeImage" style="text;html=1;strokeColor=none;fillColor=none;align=center;verticalAlign=middle;whiteSpace=wrap;rounded=0;" parent="1" vertex="1">
          <mxGeometry x="2962.5" y="220" width="115" height="30" as="geometry" />
        </mxCell>
        <mxCell id="y2oy_BMaw9z0YgU2z-pi-89" value="class = nutriBox" style="text;html=1;strokeColor=none;fillColor=none;align=center;verticalAlign=middle;whiteSpace=wrap;rounded=0;" parent="1" vertex="1">
          <mxGeometry x="2942.5" y="380" width="115" height="30" as="geometry" />
        </mxCell>
        <mxCell id="y2oy_BMaw9z0YgU2z-pi-91" value="id = nutriTitle" style="text;html=1;strokeColor=none;fillColor=none;align=center;verticalAlign=middle;whiteSpace=wrap;rounded=0;" parent="1" vertex="1">
          <mxGeometry x="3210" y="378" width="115" height="30" as="geometry" />
        </mxCell>
        <mxCell id="y2oy_BMaw9z0YgU2z-pi-92" value="class = nutri1&amp;nbsp; &amp;nbsp; &amp;nbsp; &amp;nbsp; &amp;nbsp; &amp;nbsp;id = nutriItem" style="text;html=1;strokeColor=none;fillColor=none;align=center;verticalAlign=middle;whiteSpace=wrap;rounded=0;" parent="1" vertex="1">
          <mxGeometry x="3130" y="405" width="200" height="30" as="geometry" />
        </mxCell>
        <mxCell id="y2oy_BMaw9z0YgU2z-pi-93" value="class = nutri2&amp;nbsp; &amp;nbsp; &amp;nbsp; &amp;nbsp; &amp;nbsp; &amp;nbsp;id = nutriItem" style="text;html=1;strokeColor=none;fillColor=none;align=center;verticalAlign=middle;whiteSpace=wrap;rounded=0;" parent="1" vertex="1">
          <mxGeometry x="3130" y="425" width="200" height="30" as="geometry" />
        </mxCell>
        <mxCell id="y2oy_BMaw9z0YgU2z-pi-99" value="class = dietOption&lt;br&gt;id = dietItem" style="text;html=1;strokeColor=none;fillColor=none;align=center;verticalAlign=middle;whiteSpace=wrap;rounded=0;" parent="1" vertex="1">
          <mxGeometry x="2725" y="303" width="105" height="10" as="geometry" />
        </mxCell>
        <mxCell id="y2oy_BMaw9z0YgU2z-pi-116" value="" style="shape=curlyBracket;whiteSpace=wrap;html=1;rounded=1;labelPosition=left;verticalLabelPosition=middle;align=right;verticalAlign=middle;" parent="1" vertex="1">
          <mxGeometry x="630" y="820" width="80" height="680" as="geometry" />
        </mxCell>
        <mxCell id="y2oy_BMaw9z0YgU2z-pi-117" value="Everything but the modal is blurred" style="rounded=0;whiteSpace=wrap;html=1;" parent="1" vertex="1">
          <mxGeometry x="520" y="1135" width="120" height="60" as="geometry" />
        </mxCell>
        <mxCell id="y2oy_BMaw9z0YgU2z-pi-119" value="Everything but the modal is blurred" style="rounded=0;whiteSpace=wrap;html=1;" parent="1" vertex="1">
          <mxGeometry x="2077" y="1131" width="120" height="60" as="geometry" />
        </mxCell>
        <mxCell id="y2oy_BMaw9z0YgU2z-pi-120" value="" style="shape=curlyBracket;whiteSpace=wrap;html=1;rounded=1;flipH=1;labelPosition=right;verticalLabelPosition=middle;align=left;verticalAlign=middle;" parent="1" vertex="1">
          <mxGeometry x="2010" y="820" width="70" height="680" as="geometry" />
        </mxCell>
        <mxCell id="y2oy_BMaw9z0YgU2z-pi-124" value="class = ingredientField&lt;br&gt;id = ingredientItem" style="text;html=1;strokeColor=none;fillColor=none;align=center;verticalAlign=middle;whiteSpace=wrap;rounded=0;" parent="1" vertex="1">
          <mxGeometry x="1555" y="310" width="125" height="30" as="geometry" />
        </mxCell>
        <mxCell id="y2oy_BMaw9z0YgU2z-pi-125" value="class = ingredientField&lt;br&gt;id = ingredientItem" style="text;html=1;strokeColor=none;fillColor=none;align=center;verticalAlign=middle;whiteSpace=wrap;rounded=0;" parent="1" vertex="1">
          <mxGeometry x="1555" y="380" width="125" height="30" as="geometry" />
        </mxCell>
        <mxCell id="y2oy_BMaw9z0YgU2z-pi-126" value="" style="shape=curlyBracket;whiteSpace=wrap;html=1;rounded=1;flipH=1;labelPosition=right;verticalLabelPosition=middle;align=left;verticalAlign=middle;" parent="1" vertex="1">
          <mxGeometry x="2600" y="210" width="140" height="210" as="geometry" />
        </mxCell>
        <mxCell id="y2oy_BMaw9z0YgU2z-pi-128" value="" style="shape=flexArrow;endArrow=classic;html=1;rounded=0;" parent="1" edge="1">
          <mxGeometry width="50" height="50" relative="1" as="geometry">
            <mxPoint x="1820" y="820" as="sourcePoint" />
            <mxPoint x="1820" y="680" as="targetPoint" />
          </mxGeometry>
        </mxCell>
        <mxCell id="y2oy_BMaw9z0YgU2z-pi-129" value="&lt;font style=&quot;font-size: 18px;&quot;&gt;Theme&lt;br&gt;Recipe Recommendation App&lt;/font&gt;" style="rounded=1;whiteSpace=wrap;html=1;fillColor=#f8cecc;strokeColor=#b85450;" parent="1" vertex="1">
          <mxGeometry x="2082.5" y="1270" width="1427.5" height="60" as="geometry" />
        </mxCell>
        <mxCell id="y2oy_BMaw9z0YgU2z-pi-130" value="&lt;font style=&quot;font-size: 18px;&quot;&gt;Epic&lt;br&gt;As a user, I want to get recommendations to recipes based on my dietary restrictions and ingredients I currently have.&lt;/font&gt;" style="rounded=1;whiteSpace=wrap;html=1;fillColor=#d5e8d4;strokeColor=#82b366;" parent="1" vertex="1">
          <mxGeometry x="2082.5" y="1360" width="1427.5" height="60" as="geometry" />
        </mxCell>
        <mxCell id="y2oy_BMaw9z0YgU2z-pi-131" value="User Story&lt;br&gt;&lt;br&gt;As a user, I want to choose what type of dish the app will recommend" style="rounded=1;whiteSpace=wrap;html=1;fillColor=#ffe6cc;strokeColor=#d79b00;" parent="1" vertex="1">
          <mxGeometry x="2082.5" y="1440" width="160" height="140" as="geometry" />
        </mxCell>
        <mxCell id="y2oy_BMaw9z0YgU2z-pi-132" value="User Story&lt;br style=&quot;border-color: var(--border-color);&quot;&gt;&lt;br style=&quot;border-color: var(--border-color);&quot;&gt;As a user, I want to input what ingredients I currently have at home" style="rounded=1;whiteSpace=wrap;html=1;fillColor=#ffe6cc;strokeColor=#d79b00;" parent="1" vertex="1">
          <mxGeometry x="2262.5" y="1440" width="160" height="140" as="geometry" />
        </mxCell>
        <mxCell id="y2oy_BMaw9z0YgU2z-pi-133" value="User Story&lt;br style=&quot;border-color: var(--border-color);&quot;&gt;&lt;br style=&quot;border-color: var(--border-color);&quot;&gt;As a user, I want to indicate what kind(s) of dietary restrictions I have" style="rounded=1;whiteSpace=wrap;html=1;fillColor=#ffe6cc;strokeColor=#d79b00;" parent="1" vertex="1">
          <mxGeometry x="2442.5" y="1440" width="160" height="140" as="geometry" />
        </mxCell>
        <mxCell id="y2oy_BMaw9z0YgU2z-pi-134" value="User Story&lt;br style=&quot;border-color: var(--border-color);&quot;&gt;&lt;br style=&quot;border-color: var(--border-color);&quot;&gt;As a user, I want to view the recommended recipe based on my input" style="rounded=1;whiteSpace=wrap;html=1;fillColor=#ffe6cc;strokeColor=#d79b00;" parent="1" vertex="1">
          <mxGeometry x="2622.5" y="1440" width="160" height="140" as="geometry" />
        </mxCell>
        <mxCell id="y2oy_BMaw9z0YgU2z-pi-135" value="User Story&lt;br style=&quot;border-color: var(--border-color);&quot;&gt;&lt;br style=&quot;border-color: var(--border-color);&quot;&gt;As a user, I want to see the nutritional facts of the recommended dish" style="rounded=1;whiteSpace=wrap;html=1;fillColor=#ffe6cc;strokeColor=#d79b00;" parent="1" vertex="1">
          <mxGeometry x="2802.5" y="1440" width="160" height="140" as="geometry" />
        </mxCell>
        <mxCell id="y2oy_BMaw9z0YgU2z-pi-136" value="User Story&lt;br style=&quot;border-color: var(--border-color);&quot;&gt;&lt;br style=&quot;border-color: var(--border-color);&quot;&gt;As a user, I want the get another recommendation if I don&#39;t like the recommendation I was given" style="rounded=1;whiteSpace=wrap;html=1;fillColor=#ffe6cc;strokeColor=#d79b00;" parent="1" vertex="1">
          <mxGeometry x="2982.5" y="1440" width="160" height="140" as="geometry" />
        </mxCell>
        <mxCell id="y2oy_BMaw9z0YgU2z-pi-140" value="User Story&lt;br style=&quot;border-color: var(--border-color);&quot;&gt;&lt;br style=&quot;border-color: var(--border-color);&quot;&gt;As a user, I want to click the link to the full recipe of the recommended dish" style="rounded=1;whiteSpace=wrap;html=1;fillColor=#ffe6cc;strokeColor=#d79b00;" parent="1" vertex="1">
          <mxGeometry x="3165" y="1440" width="160" height="140" as="geometry" />
        </mxCell>
        <mxCell id="y2oy_BMaw9z0YgU2z-pi-142" value="Task" style="rounded=1;whiteSpace=wrap;html=1;fillColor=#dae8fc;strokeColor=#6c8ebf;" parent="1" vertex="1">
          <mxGeometry x="2082.5" y="1600" width="157.5" height="140" as="geometry" />
        </mxCell>
        <mxCell id="y2oy_BMaw9z0YgU2z-pi-144" value="&lt;font color=&quot;#e8e8e8&quot; style=&quot;font-size: 24px;&quot;&gt;Color Schemes&lt;/font&gt;" style="text;html=1;strokeColor=none;fillColor=#647687;align=center;verticalAlign=middle;whiteSpace=wrap;rounded=0;fontColor=#ffffff;" parent="1" vertex="1">
          <mxGeometry x="645" y="1610" width="230" height="100" as="geometry" />
        </mxCell>
        <mxCell id="y2oy_BMaw9z0YgU2z-pi-166" value="" style="ellipse;whiteSpace=wrap;html=1;aspect=fixed;strokeColor=#000000;" parent="1" vertex="1">
          <mxGeometry x="760" y="1770" width="80" height="80" as="geometry" />
        </mxCell>
        <mxCell id="y2oy_BMaw9z0YgU2z-pi-167" value="" style="ellipse;whiteSpace=wrap;html=1;aspect=fixed;fillColor=#FFC1BF;strokeColor=#000000;" parent="1" vertex="1">
          <mxGeometry x="800" y="1750" width="80" height="80" as="geometry" />
        </mxCell>
        <mxCell id="y2oy_BMaw9z0YgU2z-pi-168" value="" style="ellipse;whiteSpace=wrap;html=1;aspect=fixed;fillColor=#647687;fontColor=#ffffff;strokeColor=#000000;" parent="1" vertex="1">
          <mxGeometry x="760" y="1720" width="80" height="80" as="geometry" />
        </mxCell>
        <mxCell id="y2oy_BMaw9z0YgU2z-pi-165" value="" style="ellipse;whiteSpace=wrap;html=1;aspect=fixed;fillColor=#D10000;fontColor=#ffffff;strokeColor=#000000;" parent="1" vertex="1">
          <mxGeometry x="720" y="1750" width="80" height="80" as="geometry" />
        </mxCell>
        <mxCell id="y2oy_BMaw9z0YgU2z-pi-169" value="" style="ellipse;whiteSpace=wrap;html=1;aspect=fixed;strokeColor=#000000;" parent="1" vertex="1">
          <mxGeometry x="1180" y="1770" width="80" height="80" as="geometry" />
        </mxCell>
        <mxCell id="y2oy_BMaw9z0YgU2z-pi-170" value="" style="ellipse;whiteSpace=wrap;html=1;aspect=fixed;fillColor=#404040;strokeColor=#000000;" parent="1" vertex="1">
          <mxGeometry x="1220" y="1750" width="80" height="80" as="geometry" />
        </mxCell>
        <mxCell id="y2oy_BMaw9z0YgU2z-pi-171" value="" style="ellipse;whiteSpace=wrap;html=1;aspect=fixed;fillColor=#647687;fontColor=#ffffff;strokeColor=#000000;" parent="1" vertex="1">
          <mxGeometry x="1180" y="1720" width="80" height="80" as="geometry" />
        </mxCell>
        <mxCell id="y2oy_BMaw9z0YgU2z-pi-172" value="" style="ellipse;whiteSpace=wrap;html=1;aspect=fixed;fillColor=#FFF700;fontColor=#000000;strokeColor=#000000;" parent="1" vertex="1">
          <mxGeometry x="1140" y="1750" width="80" height="80" as="geometry" />
        </mxCell>
        <mxCell id="y2oy_BMaw9z0YgU2z-pi-173" value="" style="ellipse;whiteSpace=wrap;html=1;aspect=fixed;strokeColor=#000000;" parent="1" vertex="1">
          <mxGeometry x="760" y="1960" width="80" height="80" as="geometry" />
        </mxCell>
        <mxCell id="y2oy_BMaw9z0YgU2z-pi-174" value="" style="ellipse;whiteSpace=wrap;html=1;aspect=fixed;fillColor=#4D4D4D;strokeColor=#000000;" parent="1" vertex="1">
          <mxGeometry x="800" y="1940" width="80" height="80" as="geometry" />
        </mxCell>
        <mxCell id="y2oy_BMaw9z0YgU2z-pi-175" value="" style="ellipse;whiteSpace=wrap;html=1;aspect=fixed;fillColor=#90A9C2;fontColor=#ffffff;strokeColor=#000000;" parent="1" vertex="1">
          <mxGeometry x="760" y="1910" width="80" height="80" as="geometry" />
        </mxCell>
        <mxCell id="y2oy_BMaw9z0YgU2z-pi-176" value="" style="ellipse;whiteSpace=wrap;html=1;aspect=fixed;fillColor=#12E366;fontColor=#000000;strokeColor=#000000;" parent="1" vertex="1">
          <mxGeometry x="720" y="1940" width="80" height="80" as="geometry" />
        </mxCell>
        <mxCell id="y2oy_BMaw9z0YgU2z-pi-177" value="" style="ellipse;whiteSpace=wrap;html=1;aspect=fixed;strokeColor=#000000;fillColor=#FFEBB3;" parent="1" vertex="1">
          <mxGeometry x="970" y="1770" width="80" height="80" as="geometry" />
        </mxCell>
        <mxCell id="y2oy_BMaw9z0YgU2z-pi-178" value="" style="ellipse;whiteSpace=wrap;html=1;aspect=fixed;fillColor=#fa6800;strokeColor=#000000;fontColor=#000000;" parent="1" vertex="1">
          <mxGeometry x="1010" y="1750" width="80" height="80" as="geometry" />
        </mxCell>
        <mxCell id="y2oy_BMaw9z0YgU2z-pi-179" value="" style="ellipse;whiteSpace=wrap;html=1;aspect=fixed;fillColor=#66875C;fontColor=#ffffff;strokeColor=#3A5431;" parent="1" vertex="1">
          <mxGeometry x="970" y="1720" width="80" height="80" as="geometry" />
        </mxCell>
        <mxCell id="y2oy_BMaw9z0YgU2z-pi-180" value="" style="ellipse;whiteSpace=wrap;html=1;aspect=fixed;fillColor=#7CDEBA;fontColor=#000000;strokeColor=#000000;" parent="1" vertex="1">
          <mxGeometry x="930" y="1750" width="80" height="80" as="geometry" />
        </mxCell>
        <mxCell id="y2oy_BMaw9z0YgU2z-pi-181" value="" style="ellipse;whiteSpace=wrap;html=1;aspect=fixed;strokeColor=#000000;" parent="1" vertex="1">
          <mxGeometry x="970" y="1960" width="80" height="80" as="geometry" />
        </mxCell>
        <mxCell id="y2oy_BMaw9z0YgU2z-pi-182" value="" style="ellipse;whiteSpace=wrap;html=1;aspect=fixed;fillColor=#323661;strokeColor=#000000;" parent="1" vertex="1">
          <mxGeometry x="1010" y="1940" width="80" height="80" as="geometry" />
        </mxCell>
        <mxCell id="y2oy_BMaw9z0YgU2z-pi-183" value="" style="ellipse;whiteSpace=wrap;html=1;aspect=fixed;fillColor=#D4A877;fontColor=#ffffff;strokeColor=#000000;" parent="1" vertex="1">
          <mxGeometry x="970" y="1910" width="80" height="80" as="geometry" />
        </mxCell>
        <mxCell id="y2oy_BMaw9z0YgU2z-pi-184" value="" style="ellipse;whiteSpace=wrap;html=1;aspect=fixed;fillColor=#FFF88F;fontColor=#000000;strokeColor=#000000;" parent="1" vertex="1">
          <mxGeometry x="930" y="1940" width="80" height="80" as="geometry" />
        </mxCell>
        <mxCell id="y2oy_BMaw9z0YgU2z-pi-185" value="" style="ellipse;whiteSpace=wrap;html=1;aspect=fixed;strokeColor=#000000;fillColor=#FFF9E0;" parent="1" vertex="1">
          <mxGeometry x="1180" y="1960" width="80" height="80" as="geometry" />
        </mxCell>
        <mxCell id="y2oy_BMaw9z0YgU2z-pi-160" value="" style="ellipse;whiteSpace=wrap;html=1;aspect=fixed;fillColor=#FCA65B;fontColor=#000000;strokeColor=#000000;" parent="1" vertex="1">
          <mxGeometry x="1220" y="1940" width="80" height="80" as="geometry" />
        </mxCell>
        <mxCell id="y2oy_BMaw9z0YgU2z-pi-187" value="" style="ellipse;whiteSpace=wrap;html=1;aspect=fixed;fillColor=#86E3E0;fontColor=#ffffff;strokeColor=#000000;" parent="1" vertex="1">
          <mxGeometry x="1180" y="1910" width="80" height="80" as="geometry" />
        </mxCell>
        <mxCell id="y2oy_BMaw9z0YgU2z-pi-188" value="" style="ellipse;whiteSpace=wrap;html=1;aspect=fixed;fillColor=#8E5FA3;fontColor=#000000;strokeColor=#000000;" parent="1" vertex="1">
          <mxGeometry x="1140" y="1940" width="80" height="80" as="geometry" />
        </mxCell>
        <mxCell id="y2oy_BMaw9z0YgU2z-pi-189" value="" style="ellipse;whiteSpace=wrap;html=1;aspect=fixed;strokeColor=#000000;fillColor=#F0F0F0;" parent="1" vertex="1">
          <mxGeometry x="1380" y="1770" width="80" height="80" as="geometry" />
        </mxCell>
        <mxCell id="y2oy_BMaw9z0YgU2z-pi-190" value="" style="ellipse;whiteSpace=wrap;html=1;aspect=fixed;fillColor=#3B3B3B;strokeColor=#000000;" parent="1" vertex="1">
          <mxGeometry x="1420" y="1750" width="80" height="80" as="geometry" />
        </mxCell>
        <mxCell id="y2oy_BMaw9z0YgU2z-pi-191" value="" style="ellipse;whiteSpace=wrap;html=1;aspect=fixed;fillColor=#FCCF3A;fontColor=#ffffff;strokeColor=#000000;" parent="1" vertex="1">
          <mxGeometry x="1380" y="1720" width="80" height="80" as="geometry" />
        </mxCell>
        <mxCell id="y2oy_BMaw9z0YgU2z-pi-192" value="" style="ellipse;whiteSpace=wrap;html=1;aspect=fixed;fillColor=#991212;fontColor=#000000;strokeColor=#000000;" parent="1" vertex="1">
          <mxGeometry x="1340" y="1750" width="80" height="80" as="geometry" />
        </mxCell>
        <mxCell id="y2oy_BMaw9z0YgU2z-pi-193" value="" style="ellipse;whiteSpace=wrap;html=1;aspect=fixed;strokeColor=#3B3B3B;fillColor=#fa6800;fontColor=#000000;" parent="1" vertex="1">
          <mxGeometry x="1380" y="1960" width="80" height="80" as="geometry" />
        </mxCell>
        <mxCell id="y2oy_BMaw9z0YgU2z-pi-194" value="" style="ellipse;whiteSpace=wrap;html=1;aspect=fixed;fillColor=#3B3B3B;strokeColor=#000000;" parent="1" vertex="1">
          <mxGeometry x="1420" y="1940" width="80" height="80" as="geometry" />
        </mxCell>
        <mxCell id="y2oy_BMaw9z0YgU2z-pi-195" value="" style="ellipse;whiteSpace=wrap;html=1;aspect=fixed;fillColor=#D1D1D1;fontColor=#ffffff;strokeColor=#000000;" parent="1" vertex="1">
          <mxGeometry x="1380" y="1910" width="80" height="80" as="geometry" />
        </mxCell>
        <mxCell id="y2oy_BMaw9z0YgU2z-pi-196" value="" style="ellipse;whiteSpace=wrap;html=1;aspect=fixed;fillColor=#FFFFFF;fontColor=#000000;strokeColor=#000000;" parent="1" vertex="1">
          <mxGeometry x="1340" y="1940" width="80" height="80" as="geometry" />
        </mxCell>
        <mxCell id="y2oy_BMaw9z0YgU2z-pi-197" value="" style="ellipse;whiteSpace=wrap;html=1;aspect=fixed;strokeColor=#000000;fillColor=#F0F0F0;" parent="1" vertex="1">
          <mxGeometry x="1580" y="1770" width="80" height="80" as="geometry" />
        </mxCell>
        <mxCell id="y2oy_BMaw9z0YgU2z-pi-198" value="" style="ellipse;whiteSpace=wrap;html=1;aspect=fixed;fillColor=#FF483B;strokeColor=#000000;" parent="1" vertex="1">
          <mxGeometry x="1620" y="1750" width="80" height="80" as="geometry" />
        </mxCell>
        <mxCell id="y2oy_BMaw9z0YgU2z-pi-199" value="" style="ellipse;whiteSpace=wrap;html=1;aspect=fixed;fillColor=#FFBC05;fontColor=#ffffff;strokeColor=#000000;" parent="1" vertex="1">
          <mxGeometry x="1580" y="1720" width="80" height="80" as="geometry" />
        </mxCell>
        <mxCell id="y2oy_BMaw9z0YgU2z-pi-200" value="" style="ellipse;whiteSpace=wrap;html=1;aspect=fixed;fillColor=#249396;fontColor=#000000;strokeColor=#000000;" parent="1" vertex="1">
          <mxGeometry x="1540" y="1750" width="80" height="80" as="geometry" />
        </mxCell>
        <mxCell id="y2oy_BMaw9z0YgU2z-pi-201" value="" style="shape=flexArrow;endArrow=classic;html=1;rounded=0;" parent="1" edge="1">
          <mxGeometry width="50" height="50" relative="1" as="geometry">
            <mxPoint x="1110" y="820" as="sourcePoint" />
            <mxPoint x="1110" y="680" as="targetPoint" />
          </mxGeometry>
        </mxCell>
        <mxCell id="y2oy_BMaw9z0YgU2z-pi-202" value="" style="rounded=0;whiteSpace=wrap;html=1;" parent="1" vertex="1">
          <mxGeometry x="40" y="720" width="190" height="190" as="geometry" />
        </mxCell>
        <mxCell id="y2oy_BMaw9z0YgU2z-pi-203" value="" style="shape=flexArrow;endArrow=classic;html=1;rounded=0;" parent="1" edge="1">
          <mxGeometry width="50" height="50" relative="1" as="geometry">
            <mxPoint x="50" y="790" as="sourcePoint" />
            <mxPoint x="100" y="740" as="targetPoint" />
          </mxGeometry>
        </mxCell>
        <mxCell id="y2oy_BMaw9z0YgU2z-pi-204" value="Flow" style="text;html=1;strokeColor=none;fillColor=none;align=center;verticalAlign=middle;whiteSpace=wrap;rounded=0;" parent="1" vertex="1">
          <mxGeometry x="150" y="750" width="60" height="30" as="geometry" />
        </mxCell>
        <mxCell id="y2oy_BMaw9z0YgU2z-pi-205" value="" style="endArrow=none;dashed=1;html=1;dashPattern=1 3;strokeWidth=2;rounded=0;" parent="1" edge="1">
          <mxGeometry width="50" height="50" relative="1" as="geometry">
            <mxPoint x="60" y="890" as="sourcePoint" />
            <mxPoint x="110" y="840" as="targetPoint" />
          </mxGeometry>
        </mxCell>
        <mxCell id="y2oy_BMaw9z0YgU2z-pi-206" value="Invisible Containers" style="text;html=1;strokeColor=none;fillColor=none;align=center;verticalAlign=middle;whiteSpace=wrap;rounded=0;" parent="1" vertex="1">
          <mxGeometry x="155" y="850" width="60" height="30" as="geometry" />
        </mxCell>
        <mxCell id="y2oy_BMaw9z0YgU2z-pi-207" value="class = nutri1&amp;nbsp; &amp;nbsp; &amp;nbsp; &amp;nbsp; &amp;nbsp; &amp;nbsp;id = nutriItem" style="text;html=1;strokeColor=none;fillColor=none;align=center;verticalAlign=middle;whiteSpace=wrap;rounded=0;" parent="1" vertex="1">
          <mxGeometry x="3130" y="445" width="200" height="30" as="geometry" />
        </mxCell>
        <mxCell id="y2oy_BMaw9z0YgU2z-pi-208" value="class = nutri1&amp;nbsp; &amp;nbsp; &amp;nbsp; &amp;nbsp; &amp;nbsp; &amp;nbsp;id = nutriItem" style="text;html=1;strokeColor=none;fillColor=none;align=center;verticalAlign=middle;whiteSpace=wrap;rounded=0;" parent="1" vertex="1">
          <mxGeometry x="3130" y="485" width="200" height="30" as="geometry" />
        </mxCell>
        <mxCell id="y2oy_BMaw9z0YgU2z-pi-209" value="class = nutri2&amp;nbsp; &amp;nbsp; &amp;nbsp; &amp;nbsp; &amp;nbsp; &amp;nbsp;id = nutriItem" style="text;html=1;strokeColor=none;fillColor=none;align=center;verticalAlign=middle;whiteSpace=wrap;rounded=0;" parent="1" vertex="1">
          <mxGeometry x="3130" y="465" width="200" height="30" as="geometry" />
        </mxCell>
        <mxCell id="y2oy_BMaw9z0YgU2z-pi-210" value="" style="endArrow=classic;html=1;rounded=0;" parent="1" source="y2oy_BMaw9z0YgU2z-pi-211" target="ObyzH-ZnSh05BpS8uEIB-4" edge="1">
          <mxGeometry width="50" height="50" relative="1" as="geometry">
            <mxPoint x="3550" y="300" as="sourcePoint" />
            <mxPoint x="3210" y="356.6666666666665" as="targetPoint" />
          </mxGeometry>
        </mxCell>
        <mxCell id="y2oy_BMaw9z0YgU2z-pi-211" value="This is how we make money in the future maybe? Drive traffic to third party sites. Also less work for us." style="rounded=0;whiteSpace=wrap;html=1;" parent="1" vertex="1">
          <mxGeometry x="3765" y="260" width="120" height="92" as="geometry" />
        </mxCell>
        <mxCell id="y2oy_BMaw9z0YgU2z-pi-212" value="&lt;font style=&quot;font-size: 18px;&quot;&gt;This is a single page app. All boxes are the same size and will occupy the same space. We will have a function() to add or remove a CSS id of display:none to the boxes to make them visible or invisible when users press the buttons&lt;/font&gt;" style="rounded=0;whiteSpace=wrap;html=1;" parent="1" vertex="1">
          <mxGeometry x="2095" y="745" width="645" height="150" as="geometry" />
        </mxCell>
        <mxCell id="y2oy_BMaw9z0YgU2z-pi-214" value="&lt;font style=&quot;font-size: 24px;&quot;&gt;Acceptance Criteria:&lt;br&gt;&lt;/font&gt;&lt;br&gt;&lt;font style=&quot;font-size: 18px;&quot;&gt;GIVEN the user access the app to get a recommendation for a recipe:&lt;br&gt;WHEN the user presses the start button&lt;br&gt;THEN the user is prompted with what type of recipe they want to find&lt;br&gt;&lt;br&gt;GIVEN the user did not select a type of recipe:&lt;br&gt;WHEN the user presses the next button&lt;br&gt;THEN a popup will appear and ask the user to select one category&lt;br&gt;&lt;br&gt;GIVEN the user has selected a recipe type:&lt;br&gt;WHEN the user presses the next button&lt;br&gt;THEN the user is prompted to provide a list of currently available ingredients&lt;br&gt;&lt;br&gt;GIVEN the user did not provide any currently available ingredient:&lt;br&gt;WHEN the user presses the next button&lt;br&gt;THEN a popup will appear and ask the user to provide at least one ingredient&lt;br&gt;&lt;br&gt;GIVEN the user has provide a list of currently available ingredients:&lt;br&gt;WHEN the user presses the next button&lt;br&gt;THEN the user is prompted to selected all applicable dietary restrictions&lt;br&gt;&lt;br style=&quot;border-color: var(--border-color); box-sizing: inherit; font-family: Slack-Lato, Slack-Fractions, appleLogo, sans-serif; font-variant-ligatures: common-ligatures;&quot;&gt;&lt;font face=&quot;Slack-Lato, Slack-Fractions, appleLogo, sans-serif&quot;&gt;&lt;span style=&quot;font-variant-ligatures: common-ligatures;&quot;&gt;GIVEN the user has finished selecting all applicable dietary restrictions:&lt;br&gt;&lt;/span&gt;&lt;/font&gt;WHEN the user presses the find recipe button&lt;br style=&quot;border-color: var(--border-color); box-sizing: inherit; font-family: Slack-Lato, Slack-Fractions, appleLogo, sans-serif; font-variant-ligatures: common-ligatures;&quot;&gt;&lt;span style=&quot;border-color: var(--border-color); font-family: Slack-Lato, Slack-Fractions, appleLogo, sans-serif; font-variant-ligatures: common-ligatures;&quot;&gt;THEN the user is presented with a recipe that best match the criteria and its nutrition information&lt;br&gt;&lt;/span&gt;&lt;br style=&quot;border-color: var(--border-color); box-sizing: inherit; font-family: Slack-Lato, Slack-Fractions, appleLogo, sans-serif; font-variant-ligatures: common-ligatures;&quot;&gt;&lt;span style=&quot;border-color: var(--border-color); font-family: Slack-Lato, Slack-Fractions, appleLogo, sans-serif; font-variant-ligatures: common-ligatures;&quot;&gt;Given the user is satisfied with the recipe:&lt;/span&gt;&lt;br style=&quot;border-color: var(--border-color); box-sizing: inherit; font-family: Slack-Lato, Slack-Fractions, appleLogo, sans-serif; font-variant-ligatures: common-ligatures;&quot;&gt;&lt;span style=&quot;border-color: var(--border-color); font-family: Slack-Lato, Slack-Fractions, appleLogo, sans-serif; font-variant-ligatures: common-ligatures;&quot;&gt;WHEN the user presses the go to recipe button&lt;br&gt;THEN the user is taken to the site with the recipe&lt;br&gt;&lt;br&gt;GIVEN the user is not satisfied with the recipe:&lt;br&gt;WHEN the user presses the find another recipe button&lt;br&gt;THEN the user is presented with another recipe that best match the criteria and its nutrition information&lt;br&gt;&lt;br&gt;GIVEN the user wants to restart the process from the top&lt;br&gt;WHEN the user presses the start from beginning button&lt;br&gt;THEN the user is taken back to typeBox&lt;br&gt;&lt;/span&gt;&lt;/font&gt;" style="rounded=0;whiteSpace=wrap;html=1;align=left;" parent="1" vertex="1">
          <mxGeometry x="3600" y="1000" width="840" height="830" as="geometry" />
        </mxCell>
        <mxCell id="y2oy_BMaw9z0YgU2z-pi-215" value="&lt;font style=&quot;font-size: 18px;&quot;&gt;APIs&lt;br&gt;&lt;/font&gt;&lt;br&gt;Edamam - Recipe Search API&lt;br&gt;https://developer.edamam.com/edamam-docs-recipe-api&lt;br&gt;&lt;br&gt;Edamam - Nutrition analysis API&lt;br&gt;https://developer.edamam.com/edamam-docs-nutrition-api" style="rounded=0;whiteSpace=wrap;html=1;" parent="1" vertex="1">
          <mxGeometry x="2910" y="755" width="370" height="140" as="geometry" />
        </mxCell>
        <mxCell id="y2oy_BMaw9z0YgU2z-pi-216" value="" style="endArrow=classic;html=1;rounded=0;" parent="1" source="y2oy_BMaw9z0YgU2z-pi-217" target="owtlcFxVHajjanNQeQpd-11" edge="1">
          <mxGeometry width="50" height="50" relative="1" as="geometry">
            <mxPoint x="1380" y="520" as="sourcePoint" />
            <mxPoint x="1577.5" y="430" as="targetPoint" />
          </mxGeometry>
        </mxCell>
        <mxCell id="y2oy_BMaw9z0YgU2z-pi-217" value="MVP version will have enough input fields for three ingredients.&lt;br&gt;&lt;br&gt;&quot;Add more input fields&quot; is future feature?&lt;br&gt;&lt;br&gt;Note Raaba: limit to fridge in&lt;br&gt;&lt;br&gt;list of ing to pull from" style="rounded=0;whiteSpace=wrap;html=1;" parent="1" vertex="1">
          <mxGeometry x="1300" y="495" width="120" height="175" as="geometry" />
        </mxCell>
        <mxCell id="owtlcFxVHajjanNQeQpd-71" value="" style="shape=image;html=1;verticalAlign=top;verticalLabelPosition=bottom;labelBackgroundColor=#ffffff;imageAspect=0;aspect=fixed;image=https://cdn1.iconfinder.com/data/icons/cartoon-snack/128/cookie-128.png;imageBorder=default;" parent="1" vertex="1">
          <mxGeometry x="2965" y="220" width="149" height="149" as="geometry" />
        </mxCell>
        <mxCell id="G-PMur7lLg03ytMKd7ij-1" value="&lt;font style=&quot;font-size: 24px;&quot;&gt;What is our app?&lt;br&gt;&lt;br&gt;- Recipe curation&lt;br&gt;&lt;br&gt;Why use our app?&lt;br&gt;&lt;br&gt;- Time and Effort Savings&lt;br&gt;&lt;br&gt;- Food waste reduction&lt;br&gt;&lt;/font&gt;" style="rounded=0;whiteSpace=wrap;html=1;" parent="1" vertex="1">
          <mxGeometry x="3740" y="440" width="350" height="310" as="geometry" />
        </mxCell>
        <mxCell id="-pwAD6ktePF_3REJFMYL-2" value="&lt;div style=&quot;text-align: left;&quot;&gt;&lt;span style=&quot;font-size: 24px; background-color: initial;&quot;&gt;Possible Future Functionalities&lt;/span&gt;&lt;/div&gt;&lt;font style=&quot;&quot;&gt;&lt;div style=&quot;font-size: 24px; text-align: left;&quot;&gt;&lt;span style=&quot;font-size: 24px;&quot;&gt;&lt;br&gt;&lt;/span&gt;&lt;/div&gt;&lt;span style=&quot;font-size: 24px;&quot;&gt;&lt;div style=&quot;text-align: left;&quot;&gt;&lt;span style=&quot;background-color: initial;&quot;&gt;- General end users - additional text field function to add more ingredients.&lt;/span&gt;&lt;/div&gt;&lt;/span&gt;&lt;div style=&quot;font-size: 24px; text-align: left;&quot;&gt;&lt;br&gt;&lt;/div&gt;&lt;span style=&quot;font-size: 24px;&quot;&gt;&lt;div style=&quot;text-align: left;&quot;&gt;&lt;span style=&quot;background-color: initial;&quot;&gt;- General end users - in-app serving size adjustments.&lt;/span&gt;&lt;/div&gt;&lt;/span&gt;&lt;div style=&quot;font-size: 24px; text-align: left;&quot;&gt;&lt;br&gt;&lt;/div&gt;&lt;span style=&quot;font-size: 24px;&quot;&gt;&lt;div style=&quot;text-align: left;&quot;&gt;&lt;span style=&quot;background-color: initial;&quot;&gt;- General end users - multiple users in a single account.&lt;/span&gt;&lt;/div&gt;&lt;/span&gt;&lt;div style=&quot;font-size: 24px; text-align: left;&quot;&gt;&lt;br&gt;&lt;/div&gt;&lt;span style=&quot;font-size: 24px;&quot;&gt;&lt;div style=&quot;text-align: left;&quot;&gt;&lt;span style=&quot;background-color: initial;&quot;&gt;- General end users - multiple recommendations.&lt;/span&gt;&lt;/div&gt;&lt;/span&gt;&lt;div style=&quot;font-size: 24px; text-align: left;&quot;&gt;&lt;br&gt;&lt;/div&gt;&lt;span style=&quot;font-size: 24px;&quot;&gt;&lt;div style=&quot;text-align: left;&quot;&gt;&lt;span style=&quot;background-color: initial;&quot;&gt;- General end users - in-app recipe display instead of redirects.&lt;/span&gt;&lt;/div&gt;&lt;/span&gt;&lt;div style=&quot;font-size: 24px; text-align: left;&quot;&gt;&lt;br&gt;&lt;/div&gt;&lt;span style=&quot;font-size: 24px;&quot;&gt;&lt;div style=&quot;text-align: left;&quot;&gt;&lt;span style=&quot;background-color: initial;&quot;&gt;- General end users - profiles to save dietary restrictions and favorite recipes.&lt;/span&gt;&lt;/div&gt;&lt;/span&gt;&lt;div style=&quot;font-size: 24px; text-align: left;&quot;&gt;&lt;br&gt;&lt;/div&gt;&lt;span style=&quot;font-size: 24px;&quot;&gt;&lt;div style=&quot;text-align: left;&quot;&gt;&lt;span style=&quot;background-color: initial;&quot;&gt;- General end users - customization of dietary restrictions (e.g. amount of sugar allowed, custom restrictions).&lt;/span&gt;&lt;/div&gt;&lt;/span&gt;&lt;div style=&quot;font-size: 24px; text-align: left;&quot;&gt;&lt;br&gt;&lt;/div&gt;&lt;div style=&quot;font-size: 24px; text-align: left;&quot;&gt;&lt;span style=&quot;background-color: initial;&quot;&gt;- General end users - gamification (e.g. by using our app, you&#39;ve reduced food waster by x kg this month!).&lt;/span&gt;&lt;/div&gt;&lt;div style=&quot;font-size: 24px; text-align: left;&quot;&gt;&lt;span style=&quot;background-color: initial;&quot;&gt;&lt;br&gt;&lt;/span&gt;&lt;/div&gt;&lt;div style=&quot;font-size: 24px; text-align: left;&quot;&gt;&lt;span style=&quot;background-color: initial;&quot;&gt;- General end users - featured monthly recipes that fit user filters.&lt;/span&gt;&lt;/div&gt;&lt;div style=&quot;font-size: 24px; text-align: left;&quot;&gt;&lt;span style=&quot;background-color: initial;&quot;&gt;&lt;br&gt;&lt;/span&gt;&lt;/div&gt;&lt;div style=&quot;font-size: 24px; text-align: left;&quot;&gt;&lt;span style=&quot;background-color: initial;&quot;&gt;&lt;span style=&quot;font-size: 24px;&quot;&gt;- General end users - weekly meal planner (encourage proactive use of app to further limit&amp;nbsp;food waste by pre planning ingredients).&lt;/span&gt;&lt;/span&gt;&lt;/div&gt;&lt;div style=&quot;font-size: 24px; text-align: left;&quot;&gt;&lt;span style=&quot;background-color: initial;&quot;&gt;&lt;span style=&quot;font-size: 24px;&quot;&gt;&lt;br&gt;&lt;/span&gt;&lt;/span&gt;&lt;/div&gt;&lt;div style=&quot;font-size: 24px; text-align: left;&quot;&gt;&lt;span style=&quot;background-color: initial;&quot;&gt;&lt;span style=&quot;font-size: 24px;&quot;&gt;- General end users - auto detect ingredients when users take a photo.&lt;/span&gt;&lt;/span&gt;&lt;/div&gt;&lt;div style=&quot;font-size: 24px; text-align: left;&quot;&gt;&lt;span style=&quot;background-color: initial;&quot;&gt;&lt;span style=&quot;font-size: 24px;&quot;&gt;&lt;br&gt;&lt;/span&gt;&lt;/span&gt;&lt;/div&gt;&lt;div style=&quot;font-size: 24px; text-align: left;&quot;&gt;&lt;span style=&quot;background-color: initial;&quot;&gt;&lt;span style=&quot;font-size: 24px;&quot;&gt;- General end users - additional parameters for recipe recommendation (e.g. cook time, skill level, servings).&lt;/span&gt;&lt;/span&gt;&lt;/div&gt;&lt;div style=&quot;font-size: 24px; text-align: left;&quot;&gt;&lt;span style=&quot;background-color: initial;&quot;&gt;&lt;span style=&quot;font-size: 24px;&quot;&gt;&lt;br&gt;&lt;/span&gt;&lt;/span&gt;&lt;/div&gt;&lt;div style=&quot;text-align: left;&quot;&gt;&lt;span style=&quot;background-color: initial;&quot;&gt;&lt;span style=&quot;font-size: 24px;&quot;&gt;- Sponsorship&amp;nbsp;- hello fresh codes&lt;/span&gt;&lt;/span&gt;&lt;/div&gt;&lt;div style=&quot;font-size: 24px; text-align: left;&quot;&gt;&lt;br&gt;&lt;/div&gt;&lt;span style=&quot;font-size: 24px;&quot;&gt;&lt;div style=&quot;text-align: left;&quot;&gt;&lt;span style=&quot;background-color: initial;&quot;&gt;- Medical professionals - fetching patient/client data to better provide recipes.&lt;/span&gt;&lt;/div&gt;&lt;/span&gt;&lt;div style=&quot;font-size: 24px; text-align: left;&quot;&gt;&lt;br&gt;&lt;/div&gt;&lt;span style=&quot;font-size: 24px;&quot;&gt;&lt;div style=&quot;text-align: left;&quot;&gt;&lt;span style=&quot;background-color: initial;&quot;&gt;- Medical professionals - design and monitor diets of patients/clients.&lt;/span&gt;&lt;/div&gt;&lt;/span&gt;&lt;div style=&quot;font-size: 24px; text-align: left;&quot;&gt;&lt;br&gt;&lt;/div&gt;&lt;span style=&quot;font-size: 24px;&quot;&gt;&lt;div style=&quot;text-align: left;&quot;&gt;&lt;span style=&quot;background-color: initial;&quot;&gt;- Recipe websites - paid service to direct traffic to their recipes.&lt;/span&gt;&lt;/div&gt;&lt;/span&gt;&lt;/font&gt;" style="rounded=0;whiteSpace=wrap;html=1;" parent="1" vertex="1">
          <mxGeometry x="4150" y="25" width="1450" height="938.5" as="geometry" />
        </mxCell>
        <mxCell id="Qqv1g1BPXs7PUvRjotcQ-1" value="&lt;div style=&quot;text-align: left;&quot;&gt;&lt;span style=&quot;font-size: 24px; background-color: initial;&quot;&gt;Potential App Names&lt;/span&gt;&lt;/div&gt;&lt;font style=&quot;&quot;&gt;&lt;div style=&quot;text-align: left;&quot;&gt;&lt;span style=&quot;font-size: 24px;&quot;&gt;&lt;br&gt;&lt;/span&gt;&lt;/div&gt;&lt;span style=&quot;font-size: 24px;&quot;&gt;&lt;div style=&quot;text-align: left;&quot;&gt;&lt;span style=&quot;background-color: initial;&quot;&gt;Komamo - Butchering of the Spanish word comamos, meaning let&#39;s eat.&lt;/span&gt;&lt;/div&gt;&lt;/span&gt;&lt;div style=&quot;text-align: left;&quot;&gt;&lt;br&gt;&lt;/div&gt;&lt;span style=&quot;font-size: 24px;&quot;&gt;&lt;div style=&quot;text-align: left;&quot;&gt;&lt;span style=&quot;background-color: initial;&quot;&gt;Comego - Mash up of comemos, we eat, and amigo, friend. Also kinda sounds like conmigo, with me.&lt;/span&gt;&lt;/div&gt;&lt;/span&gt;&lt;div style=&quot;text-align: left;&quot;&gt;&lt;br&gt;&lt;/div&gt;&lt;span style=&quot;font-size: 24px;&quot;&gt;&lt;div style=&quot;text-align: left;&quot;&gt;Kumamo - bear motif&lt;/div&gt;&lt;div style=&quot;text-align: left;&quot;&gt;&lt;br&gt;&lt;/div&gt;&lt;div style=&quot;text-align: left;&quot;&gt;Gom - bear motif korean&lt;/div&gt;&lt;/span&gt;&lt;/font&gt;" style="rounded=0;whiteSpace=wrap;html=1;" parent="1" vertex="1">
          <mxGeometry x="35" y="-550" width="1105" height="490" as="geometry" />
        </mxCell>
        <mxCell id="ObyzH-ZnSh05BpS8uEIB-1" value="&lt;font style=&quot;font-size: 18px;&quot;&gt;Start From Beginning&lt;/font&gt;" style="rounded=1;whiteSpace=wrap;html=1;" parent="1" vertex="1">
          <mxGeometry x="3160" y="540" width="215" height="80" as="geometry" />
        </mxCell>
        <mxCell id="ObyzH-ZnSh05BpS8uEIB-2" value="class = recipeButton&lt;br style=&quot;border-color: var(--border-color);&quot;&gt;id = restartBtn" style="text;html=1;strokeColor=none;fillColor=none;align=center;verticalAlign=middle;whiteSpace=wrap;rounded=0;" parent="1" vertex="1">
          <mxGeometry x="3187.5" y="520" width="160" height="30" as="geometry" />
        </mxCell>
        <mxCell id="ObyzH-ZnSh05BpS8uEIB-4" value="&lt;font style=&quot;font-size: 18px;&quot;&gt;Go To Recipe&lt;/font&gt;" style="rounded=1;whiteSpace=wrap;html=1;" parent="1" vertex="1">
          <mxGeometry x="3680" y="150" width="100" height="80" as="geometry" />
        </mxCell>
        <mxCell id="ObyzH-ZnSh05BpS8uEIB-5" value="class = recipe&lt;b&gt;&amp;nbsp;B&lt;/b&gt;utton&lt;br style=&quot;border-color: var(--border-color);&quot;&gt;id = linkBtn" style="text;html=1;strokeColor=none;fillColor=none;align=center;verticalAlign=middle;whiteSpace=wrap;rounded=0;" parent="1" vertex="1">
          <mxGeometry x="2825" y="520" width="140" height="30" as="geometry" />
        </mxCell>
        <mxCell id="ObyzH-ZnSh05BpS8uEIB-6" value="User Story&lt;br style=&quot;border-color: var(--border-color);&quot;&gt;&lt;br style=&quot;border-color: var(--border-color);&quot;&gt;As a user, I want to be taken back to the beginning of the app if I want to restart the process." style="rounded=1;whiteSpace=wrap;html=1;fillColor=#ffe6cc;strokeColor=#d79b00;" parent="1" vertex="1">
          <mxGeometry x="3347" y="1440" width="160" height="140" as="geometry" />
        </mxCell>
        <mxCell id="EJ340AGfokULkEJnbbu_-1" value="Oki" style="rounded=1;whiteSpace=wrap;html=1;" parent="1" vertex="1">
          <mxGeometry x="930" y="1230" width="120" height="60" as="geometry" />
        </mxCell>
        <mxCell id="EJ340AGfokULkEJnbbu_-3" value="Or display recipe" style="rounded=0;whiteSpace=wrap;html=1;" parent="1" vertex="1">
          <mxGeometry x="3130" y="219" width="230" height="151" as="geometry" />
        </mxCell>
        <mxCell id="EJ340AGfokULkEJnbbu_-6" value="" style="shape=mxgraph.signs.animals.teddy_bear;html=1;pointerEvents=1;fillColor=#BA8830;strokeColor=none;verticalLabelPosition=bottom;verticalAlign=top;align=center;" parent="1" vertex="1">
          <mxGeometry x="245.5" y="340" width="69" height="99" as="geometry" />
        </mxCell>
        <mxCell id="EJ340AGfokULkEJnbbu_-8" value="" style="rounded=0;whiteSpace=wrap;html=1;strokeColor=none;" parent="1" vertex="1">
          <mxGeometry x="120" y="580" width="140" height="70" as="geometry" />
        </mxCell>
        <mxCell id="owtlcFxVHajjanNQeQpd-4" value="&lt;font style=&quot;font-size: 18px;&quot;&gt;Let&#39;s get started!&lt;/font&gt;" style="rounded=1;whiteSpace=wrap;html=1;" parent="1" vertex="1">
          <mxGeometry x="177.5" y="420" width="205" height="80" as="geometry" />
        </mxCell>
        <mxCell id="EJ340AGfokULkEJnbbu_-9" value="" style="shape=image;html=1;verticalAlign=top;verticalLabelPosition=bottom;labelBackgroundColor=#ffffff;imageAspect=0;aspect=fixed;image=https://cdn3.iconfinder.com/data/icons/kitchen-40/512/kitchen_room_home_restaurant-01-128.png" parent="1" vertex="1">
          <mxGeometry x="255" y="368" width="50" height="50" as="geometry" />
        </mxCell>
        <mxCell id="EJ340AGfokULkEJnbbu_-16" value="" style="rounded=0;whiteSpace=wrap;html=1;" parent="1" vertex="1">
          <mxGeometry x="3610" y="-1050" width="840" height="900" as="geometry" />
        </mxCell>
        <mxCell id="EJ340AGfokULkEJnbbu_-17" value="" style="rounded=0;whiteSpace=wrap;html=1;" parent="1" vertex="1">
          <mxGeometry x="3720" y="-930" width="620" height="720" as="geometry" />
        </mxCell>
        <mxCell id="EJ340AGfokULkEJnbbu_-18" value="" style="rounded=0;whiteSpace=wrap;html=1;" parent="1" vertex="1">
          <mxGeometry x="3740" y="-340" width="550" height="110" as="geometry" />
        </mxCell>
        <mxCell id="EJ340AGfokULkEJnbbu_-19" value="" style="rounded=0;whiteSpace=wrap;html=1;" parent="1" vertex="1">
          <mxGeometry x="3740" y="-920" width="550" height="580" as="geometry" />
        </mxCell>
        <mxCell id="EJ340AGfokULkEJnbbu_-20" value="" style="rounded=0;whiteSpace=wrap;html=1;fillColor=#647687;fontColor=#ffffff;strokeColor=#314354;" parent="1" vertex="1">
          <mxGeometry x="4300" y="-910" width="40" height="310" as="geometry" />
        </mxCell>
        <mxCell id="EJ340AGfokULkEJnbbu_-21" value="" style="endArrow=classic;html=1;rounded=0;exitX=0.75;exitY=0;exitDx=0;exitDy=0;" parent="1" source="owtlcFxVHajjanNQeQpd-57" target="EJ340AGfokULkEJnbbu_-16" edge="1">
          <mxGeometry width="50" height="50" relative="1" as="geometry">
            <mxPoint x="3490" y="-130" as="sourcePoint" />
            <mxPoint x="3540" y="-180" as="targetPoint" />
          </mxGeometry>
        </mxCell>
        <mxCell id="EJ340AGfokULkEJnbbu_-22" value="Version 2. giant scrollable button&lt;br&gt;" style="text;html=1;strokeColor=none;fillColor=none;align=center;verticalAlign=middle;whiteSpace=wrap;rounded=0;" parent="1" vertex="1">
          <mxGeometry x="3300" y="-180" width="160" height="40" as="geometry" />
        </mxCell>
      </root>
    </mxGraphModel>
  </diagram>
</mxfile>
